<svg width="55" height="55" viewBox="0 0 55 55" fill="none" xmlns="http://www.w3.org/2000/svg">
<path d="M50.5405 49.1467C49.5936 50.0114 48.364 50.4876 47.0783 50.4876C45.7927 50.4876 44.5632 50.0114 43.6161 49.1467L42.3163 47.9599C40.8884 46.6559 38.7638 46.3594 37.0297 47.2211L35.4511 48.006C33.5508 48.9508 31.2818 48.9508 29.3815 48.006C28.8508 47.7422 28.2057 47.9559 27.9404 48.4837C27.6751 49.0112 27.8902 49.6527 28.4207 49.9165C30.9226 51.1603 33.9098 51.1603 36.4116 49.9165L37.9901 49.1317C38.9325 48.6632 40.087 48.8245 40.8631 49.5331L42.163 50.72C43.5075 51.9475 45.253 52.6236 47.0782 52.6236C48.9035 52.6236 50.6491 51.9475 51.9934 50.72C52.4304 50.3211 52.4593 49.6454 52.0581 49.211C51.6569 48.7766 50.9775 48.7478 50.5405 49.1467Z" fill="white"/>
<path d="M54.9258 24.8348C55.1289 24.2807 54.8418 23.6676 54.2845 23.4657C53.7268 23.2636 53.1106 23.5492 52.9075 24.1034C52.4357 25.3902 51.6589 26.5673 50.6636 27.5443C50.2167 26.8321 49.6852 26.1652 49.0734 25.5569C48.654 25.14 47.9739 25.14 47.5545 25.5569C47.135 25.974 47.135 26.6502 47.5545 27.0674C48.1076 27.6174 48.5785 28.2272 48.9641 28.8808C48.6901 29.0511 48.4074 29.2092 48.116 29.3524C45.8512 30.4655 43.3744 30.6328 41.1417 29.8235C39.4301 29.2032 38.0746 27.8743 37.3249 26.0817C36.8362 24.9133 36.6516 23.6298 36.7708 22.3826L38.469 24.0712C38.6788 24.2797 38.9537 24.384 39.2285 24.384C39.5034 24.384 39.7784 24.2797 39.988 24.0712C40.4074 23.6542 40.4074 22.9779 39.988 22.5608L37.4157 20.003C37.7515 19.3256 38.219 18.7458 38.7749 18.2819L41.5332 21.0245C41.743 21.2329 42.0178 21.3373 42.2927 21.3373C42.5675 21.3373 42.8425 21.2329 43.0521 21.0245C43.4716 20.6074 43.4716 19.9312 43.0521 19.514L40.7574 17.2323C41.7572 16.946 42.8478 16.9448 43.9023 17.2866L44.5972 17.9776C44.807 18.1861 45.0818 18.2904 45.3567 18.2904C45.6315 18.2904 45.9065 18.1861 46.1162 17.9776C46.5356 17.5606 46.5356 16.8843 46.1162 16.4671L40.5083 10.8911L42.0535 9.35466L46.309 13.586C46.9211 14.1946 47.7349 14.5298 48.6005 14.5298C49.4661 14.5298 50.28 14.1946 50.8921 13.586C51.5042 12.9774 51.8412 12.1682 51.8412 11.3074C51.8412 10.4467 51.5042 9.63747 50.8921 9.02882L43.3358 1.51542C42.4545 0.638813 41.2823 0.155975 40.0355 0.155975C38.7887 0.155975 37.6164 0.638813 36.7347 1.51542L21.0817 17.0796C20.6623 17.4967 20.6623 18.1729 21.0817 18.5901C21.5012 19.007 22.1813 19.007 22.6008 18.5901L38.2537 3.02587C38.7296 2.55254 39.3625 2.29195 40.0355 2.29195C40.7085 2.29195 41.3414 2.55254 41.8172 3.02587L49.3734 10.5393C49.7994 10.9628 49.7994 11.6521 49.3734 12.0757C49.1671 12.281 48.8927 12.3938 48.601 12.3938C48.3091 12.3938 48.0348 12.2808 47.8284 12.0757L42.8134 7.08914C42.394 6.6722 41.7138 6.6722 41.2943 7.08914L22.9093 25.3699C22.4898 25.7869 22.4898 26.4632 22.9093 26.8804L27.9243 31.8669C28.3502 32.2905 28.3502 32.9797 27.9243 33.4033C27.7179 33.6086 27.4435 33.7215 27.1517 33.7215C26.8598 33.7215 26.5854 33.6085 26.3791 33.4033L22.9952 30.0386C21.677 28.7281 19.5322 28.7281 18.2138 30.0386L6.44749 41.7383C5.46503 42.7152 3.86637 42.7152 2.88401 41.7383C1.90155 40.7614 1.90155 39.1719 2.88401 38.1949L15.7654 25.3867C16.1848 24.9696 16.1848 24.2934 15.7654 23.8762C15.3459 23.4593 14.6658 23.4593 14.2464 23.8762L1.36494 36.6845C-0.45498 38.4942 -0.45498 41.439 1.36494 43.2487C2.2749 44.1535 3.47035 44.6059 4.66559 44.6059C5.86083 44.6059 7.05628 44.1535 7.96635 43.2487L19.7328 31.5488C20.2134 31.071 20.9956 31.0708 21.4761 31.5488L24.8599 34.9135C26.1236 36.1699 28.1795 36.1699 29.4431 34.9135C30.7067 33.6571 30.7067 31.6128 29.4431 30.3563L25.1875 26.125L26.7327 24.5886L32.3406 30.1646C32.5503 30.3731 32.8252 30.4774 33.1 30.4774C33.3749 30.4774 33.6499 30.3731 33.8595 30.1646C34.2789 29.7476 34.2789 29.0713 33.8595 28.6542L28.2516 23.0781L29.7968 21.5417L35.4643 27.177C36.4702 29.3883 38.2136 31.0356 40.4057 31.8302C41.5778 32.255 42.8001 32.4658 44.0312 32.4658C45.7303 32.4658 47.4462 32.0637 49.0675 31.2669C49.3255 31.1401 49.5783 31.0041 49.8253 30.8595C50.0664 31.6741 50.1925 32.5276 50.1925 33.4004C50.1925 35.7928 49.2555 38.0422 47.5542 39.7339C46.2337 41.047 44.4779 41.77 42.6104 41.77C40.7429 41.77 38.9871 41.0469 37.6666 39.7339C36.3249 38.3998 35.7939 36.5075 36.2467 34.6723C36.3879 34.0994 36.0354 33.5212 35.4593 33.3807C34.8828 33.24 34.3015 33.5906 34.1603 34.1635C33.5272 36.7303 34.2701 39.3773 36.1475 41.2443C37.8738 42.9607 40.169 43.906 42.6104 43.906C45.0518 43.906 47.3469 42.9607 49.0731 41.2443C51.1803 39.1491 52.3407 36.3634 52.3407 33.4004C52.3407 32.0638 52.1037 30.7637 51.6511 29.5464C53.1224 28.2637 54.2651 26.6371 54.9258 24.8348ZM35.8368 18.4328L34.3803 16.9846L35.9255 15.4482L37.2513 16.7664C36.7076 17.2431 36.2289 17.802 35.8368 18.4328ZM41.5237 14.9212C40.6777 15.0027 39.8558 15.2265 39.092 15.5761L37.4444 13.9378L38.9895 12.4014L41.5237 14.9212ZM32.8613 18.495L34.9308 20.5528C34.6881 21.4399 34.5745 22.3634 34.5906 23.2873L31.3162 20.0315L32.8613 18.495Z" fill="white"/>
<path d="M31.8675 38.2725C31.8675 37.6827 31.3867 37.2045 30.7935 37.2045C30.2002 37.2045 29.7194 37.6827 29.7194 38.2725C29.7194 41.958 26.7039 44.9562 22.9975 44.9562C18.1065 44.9562 14.1274 48.9128 14.1274 53.776C14.1274 54.3658 14.6082 54.844 15.2015 54.844C15.7947 54.844 16.2755 54.3658 16.2755 53.776C16.2755 50.0905 19.2909 47.0922 22.9975 47.0922C27.8885 47.0922 31.8675 43.1358 31.8675 38.2725Z" fill="white"/>
<path d="M18.4236 22.3022C19.0168 22.3022 19.4977 21.8238 19.4977 21.2337C19.4977 20.6436 19.0168 20.1653 18.4236 20.1653C17.8304 20.1653 17.3495 20.6436 17.3495 21.2337C17.3495 21.8238 17.8304 22.3022 18.4236 22.3022Z" fill="white"/>
</svg>
