<svg width="45" height="53" viewBox="0 0 45 53" fill="none" xmlns="http://www.w3.org/2000/svg">
<path d="M25.3095 0.394882C11.7277 0.394882 5.61896 12.3893 5.61896 20.9061V33.0263C5.61896 34.2607 7.49425 34.2598 7.49425 33.0263V20.9061C7.49425 13.1631 13.0217 2.25953 25.3095 2.25953C37.5973 2.25953 43.1247 13.1631 43.1247 20.9061V40.4849C43.1247 41.7193 45 41.7184 45 40.4849V20.9061C45 12.3893 38.8903 0.394882 25.3095 0.394882Z" fill="white"/>
<path d="M5.61896 43.2819V48.8758C5.61896 50.1102 7.49425 50.1093 7.49425 48.8758V43.2819C7.49425 42.0475 5.61896 42.0484 5.61896 43.2819Z" fill="white"/>
<path d="M28.4347 34.119C26.6578 35.6983 23.9677 35.7132 22.1768 34.1516C21.2448 33.3395 20.0071 34.739 20.941 35.5538C23.4455 37.7345 27.2026 37.7168 29.6855 35.5081C30.6091 34.6858 29.3601 33.2948 28.4347 34.119Z" fill="white"/>
<path d="M44.0624 50.7405C35.4745 50.7405 32.9926 44.2049 32.8294 40.4103C36.2809 37.453 38.0699 32.9843 38.385 30.8381C39.5561 30.2107 42.1871 28.3842 42.1871 24.6354C42.1871 22.3596 40.8594 21.2958 39.3742 20.9974V16.4822C39.3742 14.5355 38.7516 12.6885 37.5739 11.1399C34.595 7.22045 29.9218 5.05652 25.3095 5.05652C16.3072 5.05652 11.2449 11.525 11.2449 16.4822V20.9974C9.75964 21.2958 8.43193 22.3596 8.43193 24.6354C8.43193 28.3842 11.062 30.2107 12.2341 30.8381C12.5501 32.9834 14.3391 37.453 17.7896 40.4094C17.6274 44.2049 15.1455 50.7405 6.55664 50.7405C5.31614 50.7405 5.3152 52.6051 6.55664 52.6051C15.7174 52.6051 18.926 46.1898 19.5552 41.6848C21.1858 42.6591 23.0976 43.2819 25.3095 43.2819C27.5214 43.2819 29.4333 42.6591 31.0638 41.6848C31.693 46.1898 34.9026 52.6051 44.0624 52.6051C45.3038 52.6051 45.3029 50.7405 44.0624 50.7405ZM37.4305 15.6272C35.3564 13.6488 32.8613 12.1879 30.1853 11.3796C30.8754 10.464 31.1529 9.33869 30.866 8.14625C33.7136 9.43472 37.0029 12.1217 37.4305 15.6272ZM27.9087 7.19714C29.4764 7.92528 29.5214 10.1004 27.9312 10.8668C22.461 9.99039 17.0676 11.9259 13.1886 15.6272C13.3367 14.4077 13.7859 13.2563 14.5407 12.2643C17.9828 7.73696 22.5529 6.13335 27.9087 7.19714ZM14.0578 30.2293C14.0578 29.8452 13.8215 29.5012 13.4615 29.3604C13.4296 29.3492 10.3072 28.0962 10.3072 24.6354C10.3072 24.1739 10.3072 22.7707 12.1825 22.7707C12.7001 22.7707 13.1202 22.353 13.1202 21.8384V18.4447C19.5796 10.56 31.0367 10.5572 37.4989 18.4447V21.8384C37.4989 22.353 37.918 22.7707 38.4365 22.7707C40.3118 22.7707 40.3118 24.1739 40.3118 24.6354C40.3118 28.0617 37.2832 29.311 37.1576 29.3604C36.7985 29.5012 36.5613 29.8452 36.5613 30.2293C36.5613 32.4436 32.9429 41.4172 25.3095 41.4172C17.6762 41.4172 14.0578 32.4436 14.0578 30.2293Z" fill="white"/>
<path d="M35.4248 25.6367C36.189 24.6624 34.7066 23.5156 33.9471 24.4899C32.9297 25.7868 30.9841 25.9994 29.7849 24.5487C28.9991 23.5949 27.5486 24.7799 28.3362 25.7327C30.2171 28.0085 33.6001 27.9647 35.4248 25.6367Z" fill="white"/>
<path d="M22.2828 25.7318C23.0713 24.778 21.6199 23.5958 20.8341 24.5477C19.7136 25.9024 17.7577 25.8735 16.6719 24.489C15.9115 23.5194 14.4291 24.6605 15.1932 25.6358C17.0235 27.9684 20.4056 28.0048 22.2828 25.7318Z" fill="white"/>
<path d="M29.7089 20.8016C30.5237 20.0231 32.2761 19.9728 34.3924 20.6655C35.5701 21.0487 36.157 19.2792 34.9784 18.8941C31.1003 17.628 29.2007 18.7039 28.4102 19.4572C27.5026 20.3243 28.8303 21.6426 29.7089 20.8016Z" fill="white"/>
<path d="M16.2256 20.6655C18.3428 19.9728 20.0934 20.0231 20.9101 20.8016C21.7896 21.6417 23.1163 20.3234 22.2087 19.4563C21.4183 18.702 19.5148 17.628 15.6414 18.8932C14.4619 19.2782 15.047 21.0487 16.2256 20.6655Z" fill="white"/>
<path d="M10.3072 37.6879V38.6202C10.3072 39.8546 12.1825 39.8537 12.1825 38.6202V37.6879C12.1825 36.4535 10.3072 36.4544 10.3072 37.6879Z" fill="white"/>
<path d="M10.3072 43.2819C10.3072 44.5163 12.1825 44.5153 12.1825 43.2819V42.3495C12.1825 41.1151 10.3072 41.1161 10.3072 42.3495V43.2819Z" fill="white"/>
<path d="M13.1201 41.418H14.0578C15.2983 41.418 15.2992 39.5526 14.0578 39.5526H13.1201C11.8796 39.5526 11.8787 41.418 13.1201 41.418Z" fill="white"/>
<path d="M9.36947 39.5526H8.43183C7.19132 39.5526 7.19039 41.418 8.43183 41.418H9.36947C10.61 41.418 10.6109 39.5526 9.36947 39.5526Z" fill="white"/>
<path d="M3.74367 35.8233C4.26125 35.8233 4.68132 35.4065 4.68132 34.8909V33.9586C4.68132 32.7242 2.80603 32.7251 2.80603 33.9586V34.8909C2.80603 35.4065 3.22609 35.8233 3.74367 35.8233Z" fill="white"/>
<path d="M3.74367 37.6879C3.22609 37.6879 2.80603 38.1046 2.80603 38.6202V39.5525C2.80603 40.7869 4.68132 40.786 4.68132 39.5525V38.6202C4.68132 38.1046 4.26125 37.6879 3.74367 37.6879Z" fill="white"/>
<path d="M6.55656 37.6887C7.79707 37.6887 7.798 35.8233 6.55656 35.8233H5.61892C5.10134 35.8233 4.68127 36.2402 4.68127 36.756C4.68127 37.2718 5.10134 37.6887 5.61892 37.6887H6.55656Z" fill="white"/>
<path d="M1.86837 35.8233H0.930729C-0.309774 35.8233 -0.310712 37.6887 0.930729 37.6887H1.86837C2.38595 37.6887 2.80602 37.2718 2.80602 36.756C2.80602 36.2402 2.38595 35.8233 1.86837 35.8233Z" fill="white"/>
<path d="M40.3118 41.4172C40.3118 40.9016 39.8927 40.4849 39.3742 40.4849C38.8557 40.4849 38.4365 40.9016 38.4365 41.4172V42.3495C38.4365 43.5839 40.3118 43.583 40.3118 42.3495V41.4172Z" fill="white"/>
<path d="M40.3118 47.0112V46.0789C40.3118 44.8445 38.4365 44.8454 38.4365 46.0789V47.0112C38.4365 48.2456 40.3118 48.2447 40.3118 47.0112Z" fill="white"/>
<path d="M41.2494 45.1474H42.187C43.4285 45.1474 43.4275 43.2819 42.187 43.2819H41.2494C40.008 43.2819 40.0089 45.1474 41.2494 45.1474Z" fill="white"/>
<path d="M37.4988 43.2819H36.5612C35.3197 43.2819 35.3207 45.1474 36.5612 45.1474H37.4988C38.7402 45.1474 38.7393 43.2819 37.4988 43.2819Z" fill="white"/>
</svg>
