<svg width="55" height="55" viewBox="0 0 55 55" fill="none" xmlns="http://www.w3.org/2000/svg">
<path d="M9.87681 10.1587C9.66885 10.2767 9.52189 10.4737 9.47119 10.7023C9.41017 10.9833 3.57502 38.9354 27.201 47.4004C27.2972 47.4353 27.3986 47.4519 27.5 47.4519C27.6014 47.4519 27.702 47.4345 27.7991 47.4004C51.425 38.9354 45.5899 10.9841 45.5288 10.7023C45.4781 10.4746 45.3321 10.2767 45.1232 10.1587C44.9153 10.039 44.6669 10.0124 44.4349 10.0797C44.3274 10.1104 33.6806 13.1837 28.1076 7.79282C27.7716 7.46778 27.2285 7.46778 26.8924 7.79282C21.3177 13.1837 10.6717 10.1121 10.5652 10.0797C10.3331 10.0115 10.0848 10.039 9.87681 10.1587ZM10.9957 11.9127C13.7921 12.5702 22.1238 14.0158 27.5 9.51608C32.8771 14.0158 41.2079 12.5702 44.0043 11.9127C44.3421 13.9793 45.0192 19.4807 43.939 25.5383C42.1506 35.5695 36.6206 42.3619 27.5 45.732C18.3795 42.3619 12.8494 35.5695 11.061 25.5383C9.9808 19.4807 10.658 13.9793 10.9957 11.9127Z" fill="white"/>
<path d="M17.2812 21.6321L23.2031 25.451V30.7563L21.4964 40.6636C21.4543 40.9047 21.5248 41.1508 21.6889 41.3378C21.8514 41.524 22.092 41.6321 22.3446 41.6321H25.7821C26.2024 41.6321 26.5607 41.3378 26.6295 40.9379L27.5009 35.882L28.3723 40.9379C28.441 41.3386 28.7994 41.6321 29.2196 41.6321H32.6571C32.9098 41.6321 33.1496 41.5248 33.3128 41.3378C33.4761 41.1508 33.5466 40.9047 33.5053 40.6636L31.7986 30.7563V25.451L37.7206 21.6321C38.9031 20.8698 39.2236 19.3178 38.4356 18.1739L35.9511 14.5695C35.7354 14.2569 35.3324 14.1222 34.9646 14.2419L32.3864 15.0732C32.151 15.1497 31.9602 15.321 31.8648 15.5437C31.7694 15.7665 31.778 16.0184 31.8897 16.2337L33.2243 18.8149L30.7364 20.0177H30.4614C30.7571 19.5264 30.9392 18.9637 30.9392 18.3552V16.6926C30.9392 14.8588 29.3975 13.3674 27.5017 13.3674C25.606 13.3674 24.0642 14.8588 24.0642 16.6926V18.3552C24.0642 18.9637 24.2464 19.5264 24.5421 20.0177H24.2671L21.7792 18.8149L23.1138 16.2337C23.2255 16.0184 23.2349 15.7665 23.1387 15.5437C23.0433 15.321 22.8525 15.1497 22.6171 15.0732L20.0389 14.2419C19.6694 14.1231 19.2681 14.2577 19.0524 14.5695L16.5679 18.1739C15.7799 19.3178 16.1004 20.8698 17.2829 21.6321H17.2812ZM25.7813 18.356V16.6934C25.7813 15.7765 26.5521 15.0308 27.5 15.0308C28.4479 15.0308 29.2188 15.7765 29.2188 16.6934V18.356C29.2188 19.2729 28.4479 20.0186 27.5 20.0186C26.5521 20.0186 25.7813 19.2729 25.7813 18.356ZM17.9962 19.0967L20.1163 16.0209L21.1321 16.3484L19.8567 18.8165C19.6445 19.2272 19.8164 19.7268 20.2409 19.9321L23.6784 21.5947C23.7978 21.6521 23.9293 21.682 24.0625 21.682H30.9375C31.0707 21.682 31.2031 21.6521 31.3217 21.5947L34.7592 19.9321C35.1837 19.7268 35.3556 19.2272 35.1433 18.8165L33.868 16.3484L34.8838 16.0209L37.0038 19.0967C37.2668 19.4782 37.1603 19.9953 36.7658 20.2497L30.4614 24.3155C30.2225 24.4701 30.079 24.7295 30.079 25.0071V30.8262C30.079 30.8719 30.0833 30.9176 30.091 30.9633L31.6431 39.9703H29.9475L28.3491 30.689C28.2803 30.2883 27.922 29.9949 27.5017 29.9949C27.0815 29.9949 26.7231 30.2891 26.6544 30.689L25.056 39.9703H23.3604L24.9124 30.9633C24.9202 30.9176 24.9245 30.8727 24.9245 30.8262V25.0071C24.9245 24.7295 24.781 24.4701 24.5421 24.3155L18.2377 20.2497C17.8432 19.9953 17.7367 19.4782 17.9996 19.0967H17.9962Z" fill="white"/>
<path d="M18.9758 7.87678C19.115 8.19184 19.4322 8.38054 19.7656 8.38054C19.879 8.38054 19.9942 8.35893 20.1033 8.31237C20.5399 8.13199 20.7418 7.64319 20.5545 7.22089L17.9772 1.4027C17.7907 0.98041 17.2811 0.785057 16.8497 0.966278C16.4132 1.14667 16.2112 1.63547 16.3986 2.05776L18.9767 7.87595L18.9758 7.87678Z" fill="white"/>
<path d="M34.8967 8.31239C35.0067 8.35811 35.1218 8.38056 35.2344 8.38056C35.5678 8.38056 35.8849 8.19102 36.0242 7.87679L38.6023 2.05777C38.7896 1.63548 38.5868 1.14668 38.1511 0.966292C37.718 0.785903 37.2092 0.980424 37.0236 1.40272L34.4455 7.22174C34.2581 7.64403 34.461 8.132 34.8967 8.31239Z" fill="white"/>
<path d="M7.66473 34.6542C7.47738 34.2319 6.96949 34.0366 6.53723 34.2178L0.521604 36.7108C0.0850413 36.8912 -0.116912 37.38 0.0704319 37.8023C0.209651 38.1174 0.52676 38.3061 0.860198 38.3061C0.973635 38.3061 1.08879 38.2845 1.19879 38.2379L7.21442 35.7449C7.65098 35.5645 7.85293 35.0757 7.66559 34.6534L7.66473 34.6542Z" fill="white"/>
<path d="M0.521659 18.2887L6.53728 20.7825C6.64728 20.8283 6.76244 20.8507 6.87588 20.8507C7.20931 20.8507 7.52642 20.6612 7.66564 20.3469C7.85299 19.9246 7.65017 19.4359 7.21447 19.2555L1.19885 16.7616C0.765721 16.5804 0.25783 16.7757 0.0713461 17.198C-0.115998 17.6203 0.0868148 18.1091 0.522518 18.2895L0.521659 18.2887Z" fill="white"/>
<path d="M36.0241 47.1244C35.8368 46.7021 35.3289 46.5059 34.8966 46.688C34.46 46.8684 34.2581 47.3572 34.4454 47.7795L37.0236 53.5976C37.1628 53.9127 37.4799 54.1014 37.8133 54.1014C37.9268 54.1014 38.0419 54.0798 38.1511 54.0332C38.5876 53.8528 38.7896 53.3641 38.6022 52.9418L36.0241 47.1244Z" fill="white"/>
<path d="M20.1033 46.6871C19.6693 46.5059 19.1623 46.7013 18.9758 47.1236L16.3977 52.9417C16.2104 53.364 16.4132 53.8528 16.8489 54.0332C16.9589 54.079 17.074 54.1014 17.1866 54.1014C17.52 54.1014 17.8372 53.9127 17.9764 53.5976L20.5545 47.7794C20.7418 47.3572 20.539 46.8675 20.1033 46.6871Z" fill="white"/>
<path d="M53.802 16.7616L47.7864 19.2546C47.3498 19.435 47.1479 19.9238 47.3352 20.3461C47.4744 20.6612 47.7915 20.8499 48.125 20.8499C48.2384 20.8499 48.3536 20.8283 48.4636 20.7817L54.4792 18.2887C54.9158 18.1083 55.1177 17.6195 54.9304 17.1972C54.743 16.7749 54.2343 16.5796 53.8029 16.7608L53.802 16.7616Z" fill="white"/>
<path d="M54.4783 36.7117L48.4627 34.2178C48.0287 34.0374 47.5217 34.2328 47.3352 34.6542C47.1479 35.0765 47.3507 35.5653 47.7864 35.7457L53.802 38.2396C53.912 38.2853 54.0272 38.3078 54.1406 38.3078C54.474 38.3078 54.7911 38.1182 54.9304 37.804C55.1177 37.3817 54.9149 36.8929 54.4792 36.7125L54.4783 36.7117Z" fill="white"/>
<path d="M27.5 6.71796C27.9752 6.71796 28.3594 6.34554 28.3594 5.88667V2.56151C28.3594 2.10264 27.9752 1.73022 27.5 1.73022C27.0248 1.73022 26.6406 2.10264 26.6406 2.56151V5.88667C26.6406 6.34554 27.0248 6.71796 27.5 6.71796Z" fill="white"/>
<path d="M1.71875 26.6689C1.24352 26.6689 0.859375 27.0415 0.859375 27.5005C0.859375 27.9596 1.24352 28.3322 1.71875 28.3322H5.15625C5.63148 28.3322 6.01562 27.9596 6.01562 27.5005C6.01562 27.0415 5.63148 26.6689 5.15625 26.6689H1.71875Z" fill="white"/>
<path d="M27.5 48.2824C27.0248 48.2824 26.6406 48.6548 26.6406 49.1137V52.4388C26.6406 52.8977 27.0248 53.2701 27.5 53.2701C27.9752 53.2701 28.3594 52.8977 28.3594 52.4388V49.1137C28.3594 48.6548 27.9752 48.2824 27.5 48.2824Z" fill="white"/>
<path d="M53.2812 28.3322C53.7565 28.3322 54.1406 27.9596 54.1406 27.5005C54.1406 27.0415 53.7565 26.6689 53.2812 26.6689H49.8438C49.3685 26.6689 48.9844 27.0415 48.9844 27.5005C48.9844 27.9596 49.3685 28.3322 49.8438 28.3322H53.2812Z" fill="white"/>
<path d="M0.859375 6.71798H1.84078C1.92156 7.01973 2.04531 7.3032 2.20602 7.56506L1.51078 8.23757C1.17477 8.5626 1.17477 9.08881 1.51078 9.41301C1.67836 9.57511 1.89836 9.65658 2.11836 9.65658C2.33836 9.65658 2.55836 9.57511 2.72594 9.41301L3.42117 8.7405C3.69187 8.89512 3.98492 9.01483 4.29688 9.0938V10.0431C4.29688 10.502 4.68102 10.8744 5.15625 10.8744C5.63148 10.8744 6.01563 10.502 6.01563 10.0431V9.0938C6.32758 9.01566 6.62063 8.89595 6.89133 8.7405L7.58656 9.41301C7.75414 9.57511 7.97414 9.65658 8.19414 9.65658C8.41414 9.65658 8.63414 9.57511 8.80172 9.41301C9.13773 9.08881 9.13773 8.5626 8.80172 8.23757L8.10648 7.56506C8.26633 7.30237 8.39008 7.01973 8.47172 6.71798H9.45312C9.92836 6.71798 10.3125 6.34556 10.3125 5.88669C10.3125 5.42782 9.92836 5.0554 9.45312 5.0554H8.47172C8.39094 4.75364 8.26719 4.47017 8.10648 4.20832L8.80172 3.5358C9.13773 3.21077 9.13773 2.68456 8.80172 2.36036C8.4657 2.03533 7.92258 2.03533 7.58656 2.36036L6.89133 3.03287C6.62063 2.87825 6.32758 2.75855 6.01563 2.67958V1.73024C6.01563 1.27137 5.63148 0.898956 5.15625 0.898956C4.68102 0.898956 4.29688 1.27137 4.29688 1.73024V2.67958C3.98492 2.75772 3.69187 2.87742 3.42117 3.03287L2.72594 2.36036C2.38992 2.03533 1.8468 2.03533 1.51078 2.36036C1.17477 2.68456 1.17477 3.21077 1.51078 3.5358L2.20602 4.20832C2.04617 4.471 1.92242 4.75364 1.84078 5.0554H0.859375C0.384141 5.0554 0 5.42782 0 5.88669C0 6.34556 0.384141 6.71798 0.859375 6.71798ZM5.15625 4.22411C6.10414 4.22411 6.875 4.96978 6.875 5.88669C6.875 6.8036 6.10414 7.54926 5.15625 7.54926C4.20836 7.54926 3.4375 6.8036 3.4375 5.88669C3.4375 4.96978 4.20836 4.22411 5.15625 4.22411Z" fill="white"/>
<path d="M45.5469 6.71798H46.5283C46.6091 7.01973 46.7328 7.3032 46.8935 7.56506L46.1983 8.23757C45.8623 8.56261 45.8623 9.08881 46.1983 9.41301C46.3659 9.57511 46.5859 9.65658 46.8059 9.65658C47.0259 9.65658 47.2459 9.57511 47.4134 9.41301L48.1087 8.7405C48.3794 8.89512 48.6724 9.01483 48.9844 9.0938V10.0431C48.9844 10.502 49.3685 10.8744 49.8438 10.8744C50.319 10.8744 50.7031 10.502 50.7031 10.0431V9.0938C51.0151 9.01566 51.3081 8.89595 51.5788 8.7405L52.2741 9.41301C52.4416 9.57511 52.6616 9.65658 52.8816 9.65658C53.1016 9.65658 53.3216 9.57511 53.4892 9.41301C53.8252 9.08881 53.8252 8.56261 53.4892 8.23757L52.794 7.56506C52.9538 7.30237 53.0776 7.01973 53.1592 6.71798H54.1406C54.6159 6.71798 55 6.34556 55 5.88669C55 5.42782 54.6159 5.0554 54.1406 5.0554H53.1592C53.0784 4.75364 52.9547 4.47017 52.794 4.20832L53.4892 3.5358C53.8252 3.21077 53.8252 2.68456 53.4892 2.36036C53.1532 2.03533 52.6101 2.03533 52.2741 2.36036L51.5788 3.03287C51.3081 2.87825 51.0151 2.75855 50.7031 2.67958V1.73024C50.7031 1.27137 50.319 0.898956 49.8438 0.898956C49.3685 0.898956 48.9844 1.27137 48.9844 1.73024V2.67958C48.6724 2.75772 48.3794 2.87742 48.1087 3.03287L47.4134 2.36036C47.0774 2.03533 46.5343 2.03533 46.1983 2.36036C45.8623 2.68456 45.8623 3.21077 46.1983 3.5358L46.8935 4.20832C46.7337 4.471 46.6099 4.75364 46.5283 5.0554H45.5469C45.0716 5.0554 44.6875 5.42782 44.6875 5.88669C44.6875 6.34556 45.0716 6.71798 45.5469 6.71798ZM49.8438 4.22411C50.7916 4.22411 51.5625 4.96978 51.5625 5.88669C51.5625 6.8036 50.7916 7.54926 49.8438 7.54926C48.8959 7.54926 48.125 6.8036 48.125 5.88669C48.125 4.96978 48.8959 4.22411 49.8438 4.22411Z" fill="white"/>
<path d="M12.0312 44.9572H11.0498C10.9691 44.6555 10.8453 44.372 10.6846 44.1101L11.3798 43.4376C11.7159 43.1126 11.7159 42.5864 11.3798 42.2622C11.0438 41.9372 10.5007 41.9372 10.1647 42.2622L9.46945 42.9347C9.19875 42.7801 8.9057 42.6604 8.59375 42.5814V41.6321C8.59375 41.1732 8.20961 40.8008 7.73438 40.8008C7.25914 40.8008 6.875 41.1732 6.875 41.6321V42.5814C6.56305 42.6595 6.27 42.7792 5.9993 42.9347L5.30406 42.2622C4.96805 41.9372 4.42492 41.9372 4.08891 42.2622C3.75289 42.5864 3.75289 43.1126 4.08891 43.4376L4.78414 44.1101C4.6243 44.3728 4.50055 44.6555 4.41891 44.9572H3.4375C2.96227 44.9572 2.57812 45.3296 2.57812 45.7885C2.57812 46.2474 2.96227 46.6198 3.4375 46.6198H4.41891C4.49969 46.9216 4.62344 47.205 4.78414 47.4669L4.08891 48.1394C3.75289 48.4644 3.75289 48.9906 4.08891 49.3148C4.25648 49.4769 4.47648 49.5584 4.69648 49.5584C4.91648 49.5584 5.13648 49.4769 5.30406 49.3148L5.9993 48.6423C6.27 48.7969 6.56305 48.9167 6.875 48.9956V49.945C6.875 50.4038 7.25914 50.7762 7.73438 50.7762C8.20961 50.7762 8.59375 50.4038 8.59375 49.945V48.9956C8.9057 48.9175 9.19875 48.7978 9.46945 48.6423L10.1647 49.3148C10.3323 49.4769 10.5523 49.5584 10.7723 49.5584C10.9923 49.5584 11.2123 49.4769 11.3798 49.3148C11.7159 48.9906 11.7159 48.4644 11.3798 48.1394L10.6846 47.4669C10.8445 47.2042 10.9682 46.9216 11.0498 46.6198H12.0312C12.5065 46.6198 12.8906 46.2474 12.8906 45.7885C12.8906 45.3296 12.5065 44.9572 12.0312 44.9572ZM7.73438 47.4511C6.78648 47.4511 6.01562 46.7054 6.01562 45.7885C6.01562 44.8716 6.78648 44.1259 7.73438 44.1259C8.68227 44.1259 9.45312 44.8716 9.45312 45.7885C9.45312 46.7054 8.68227 47.4511 7.73438 47.4511Z" fill="white"/>
<path d="M51.5625 44.9572H50.5811C50.5003 44.6555 50.3766 44.372 50.2159 44.1101L50.9111 43.4376C51.2471 43.1126 51.2471 42.5864 50.9111 42.2622C50.5751 41.9372 50.032 41.9372 49.6959 42.2622L49.0007 42.9347C48.73 42.7801 48.437 42.6604 48.125 42.5814V41.6321C48.125 41.1732 47.7409 40.8008 47.2656 40.8008C46.7904 40.8008 46.4062 41.1732 46.4062 41.6321V42.5814C46.0943 42.6595 45.8012 42.7792 45.5305 42.9347L44.8353 42.2622C44.4993 41.9372 43.9562 41.9372 43.6202 42.2622C43.2841 42.5864 43.2841 43.1126 43.6202 43.4376L44.3154 44.1101C44.1555 44.3728 44.0318 44.6555 43.9502 44.9572H42.9688C42.4935 44.9572 42.1094 45.3296 42.1094 45.7885C42.1094 46.2474 42.4935 46.6198 42.9688 46.6198H43.9502C44.0309 46.9216 44.1547 47.205 44.3154 47.4669L43.6202 48.1394C43.2841 48.4644 43.2841 48.9906 43.6202 49.3148C43.7877 49.4769 44.0077 49.5584 44.2277 49.5584C44.4477 49.5584 44.6677 49.4769 44.8353 49.3148L45.5305 48.6423C45.8012 48.7969 46.0943 48.9167 46.4062 48.9956V49.945C46.4062 50.4038 46.7904 50.7762 47.2656 50.7762C47.7409 50.7762 48.125 50.4038 48.125 49.945V48.9956C48.437 48.9175 48.73 48.7978 49.0007 48.6423L49.6959 49.3148C49.8635 49.4769 50.0835 49.5584 50.3035 49.5584C50.5235 49.5584 50.7435 49.4769 50.9111 49.3148C51.2471 48.9906 51.2471 48.4644 50.9111 48.1394L50.2159 47.4669C50.3757 47.2042 50.4995 46.9216 50.5811 46.6198H51.5625C52.0377 46.6198 52.4219 46.2474 52.4219 45.7885C52.4219 45.3296 52.0377 44.9572 51.5625 44.9572ZM47.2656 47.4511C46.3177 47.4511 45.5469 46.7054 45.5469 45.7885C45.5469 44.8716 46.3177 44.1259 47.2656 44.1259C48.2135 44.1259 48.9844 44.8716 48.9844 45.7885C48.9844 46.7054 48.2135 47.4511 47.2656 47.4511Z" fill="white"/>
</svg>
