<svg width="57" height="55" viewBox="0 0 57 55" fill="none" xmlns="http://www.w3.org/2000/svg">
<path d="M54.0387 27.0369C53.3755 26.9112 52.7017 27.0426 52.1408 27.4071C51.6763 27.709 51.3354 28.141 51.1582 28.6449L48.2762 27.4275C48.2821 27.2367 48.285 27.0487 48.285 26.8655C48.285 25.2264 48.0729 23.5989 47.6543 22.0222L48.9471 21.1739C49.7665 21.8681 50.9575 22.0757 52.0001 21.6375C53.4031 21.0478 54.0751 19.4773 53.5299 18.0621L52.9213 16.4822C52.3696 15.0497 50.7824 14.2949 49.3083 14.7629C48.5623 14.9999 47.9619 15.5054 47.618 16.1864C47.4223 16.5737 47.3236 16.9891 47.3234 17.4066L45.8567 17.6047C45.6558 17.2484 45.4363 16.8873 45.2018 16.5276C44.9594 16.1556 44.4509 16.0442 44.0665 16.2787C43.6818 16.5132 43.5666 17.0048 43.8091 17.3768C44.0857 17.8014 44.3393 18.2268 44.5626 18.6415C44.7868 19.0573 45.2597 19.2931 45.7382 19.2285L48.3831 18.8714C48.6285 18.8382 48.8455 18.6999 48.9736 18.4948C49.1018 18.2897 49.1277 18.0395 49.0441 17.8139C48.9305 17.5078 48.9494 17.1781 49.097 16.8857C49.2443 16.5942 49.5017 16.3777 49.8218 16.276C50.4428 16.079 51.1407 16.4209 51.3786 17.0384L51.9872 18.6183C52.2227 19.2297 51.9342 19.929 51.3439 20.1772C50.7789 20.4146 50.1136 20.2111 49.7956 19.7039C49.6787 19.5174 49.4876 19.3854 49.2673 19.3389C49.0471 19.2923 48.8165 19.3355 48.6298 19.4579L46.4361 20.8972C46.0292 21.1642 45.8439 21.6522 45.9752 22.1117C46.4155 23.654 46.6387 25.2535 46.6387 26.8656C46.6387 27.1298 46.6318 27.4058 46.6184 27.6862C46.5966 28.1429 46.8724 28.5725 47.3046 28.755L51.4173 30.4923C51.6461 30.589 51.9078 30.58 52.1288 30.468C52.3499 30.356 52.5064 30.153 52.5545 29.916L52.6849 29.2737C52.7303 29.0498 52.8632 28.8564 53.059 28.7291C53.2547 28.6018 53.49 28.5558 53.7216 28.5999C54.1996 28.6906 54.5122 29.1405 54.4184 29.6027L53.744 32.9276C53.697 33.159 53.558 33.3564 53.3523 33.4834C53.1468 33.6102 52.9025 33.6487 52.6645 33.5924C52.2145 33.4855 51.9253 33.0193 52.0198 32.553L52.0378 32.4642C52.0863 32.2243 52.0183 31.9762 51.8534 31.7912C51.6884 31.6059 51.4429 31.5036 51.1924 31.5156L46.7437 31.7119C46.2727 31.7326 45.8562 32.0381 45.7074 32.4725C45.2952 33.6763 44.7482 34.8393 44.0813 35.9292C43.833 36.335 43.8765 36.8495 44.1897 37.2094L46.1578 39.4711C46.304 39.6392 46.5155 39.7412 46.742 39.7534C46.9687 39.7653 47.1906 39.6865 47.3549 39.5352C47.7961 39.1293 48.4667 39.0946 48.9496 39.4521C49.211 39.6455 49.3787 39.9258 49.4222 40.2413C49.4657 40.5569 49.3793 40.8698 49.1794 41.1226L48.6092 41.8436C48.1994 42.3614 47.4342 42.4945 46.9034 42.1407C46.4522 41.8399 46.2592 41.2793 46.4342 40.7775C46.5705 40.3867 46.3757 39.9599 45.9851 39.7941L43.15 38.5895C42.6991 38.3976 42.1728 38.506 41.8401 38.8593C40.5759 40.2021 39.1161 41.3461 37.501 42.2597C37.0931 42.4901 36.8704 42.9472 36.9466 43.397L37.6724 47.6781C37.7128 47.9164 37.8627 48.124 38.0801 48.2427C38.2975 48.3614 38.5586 48.3782 38.7905 48.2886L39.4186 48.0455C39.645 47.9579 39.8919 47.9636 40.1138 48.0617C40.3357 48.1596 40.5018 48.337 40.5822 48.5612C40.7338 48.9847 40.4861 49.473 40.03 49.6494L36.8228 50.8905C36.5963 50.9782 36.3495 50.9724 36.1275 50.8744C35.9058 50.7765 35.7395 50.5991 35.6591 50.375C35.5075 49.9515 35.7551 49.4632 36.2109 49.2868L36.2977 49.2532C36.5323 49.1625 36.7108 48.9725 36.7819 48.738C36.8529 48.5035 36.8088 48.2504 36.662 48.0514L34.0745 44.5445C33.8008 44.1732 33.3092 44.0009 32.8522 44.1156C31.3436 44.4939 29.7841 44.6857 28.2168 44.6857C26.9758 44.6857 25.7318 44.5645 24.5194 44.3254C24.0566 44.2342 23.5756 44.4309 23.3218 44.8153L20.7319 48.7445C20.5977 48.948 20.5663 49.1995 20.6465 49.4282C20.7265 49.6569 20.9096 49.838 21.1441 49.9207L21.2358 49.9531C21.5502 50.0639 21.8012 50.2867 21.9425 50.5802C22.0837 50.8737 22.0983 51.2029 21.9838 51.5071C21.9507 51.5944 21.9339 51.6868 21.9339 51.7798C21.9339 52.081 21.8421 52.3092 21.6752 52.422C21.5085 52.535 21.2556 52.5405 20.9629 52.4371L17.7814 51.3149C17.1443 51.0902 16.8051 50.403 17.0252 49.783C17.1302 49.4874 17.3563 49.2471 17.6619 49.1061C17.9846 48.9571 18.3599 48.9387 18.691 49.0554L18.7639 49.0811C19.0011 49.165 19.2651 49.1386 19.4798 49.0097C19.6946 48.8808 19.8362 48.6637 19.864 48.4208L20.3912 43.816C20.4431 43.3629 20.196 42.9177 19.7763 42.7081C17.8517 41.7467 16.1298 40.475 14.6588 38.9289C14.335 38.5883 13.8209 38.4772 13.3795 38.6524L9.49691 40.1926C9.28146 40.2781 9.11354 40.4477 9.03473 40.6596C8.95582 40.8715 8.97349 41.1059 9.08314 41.3045C9.32953 41.7504 9.18521 42.2966 8.74751 42.575C8.29631 42.8622 7.66456 42.7279 7.33969 42.2756L6.34521 40.8909C6.02626 40.4468 6.10221 39.8506 6.51807 39.5336C6.73308 39.3697 6.99989 39.2979 7.26879 39.3314C7.53977 39.3651 7.77947 39.4995 7.944 39.71C8.09282 39.9004 8.32221 40.0163 8.56894 40.0255C8.81479 40.0346 9.0535 39.9363 9.21704 39.7574L11.9517 36.7675C12.2726 36.4167 12.3301 35.9049 12.0947 35.4936C11.8007 34.9806 11.5271 34.4405 11.282 33.888C11.1024 33.484 10.6185 33.297 10.2007 33.4706C9.78293 33.6442 9.58976 34.1124 9.7691 34.5165C9.98894 35.0113 10.2296 35.4976 10.4867 35.9659L8.528 38.1076C8.213 37.9207 7.85762 37.7989 7.47908 37.7517C6.7671 37.6633 6.06445 37.8518 5.49911 38.2827C4.40058 39.1201 4.17844 40.6648 4.99336 41.7993L5.98785 43.184C6.8177 44.3395 8.46138 44.663 9.65232 43.9054C10.543 43.3388 10.9722 42.3505 10.8224 41.3877L13.6848 40.2522C15.1549 41.7453 16.8451 42.9933 18.7175 43.968L18.3259 47.3884C17.8559 47.3755 17.3831 47.4699 16.9531 47.6684C16.2454 47.9949 15.718 48.562 15.4682 49.2653C14.9587 50.7004 15.7435 52.2909 17.2175 52.8108L20.399 53.933C20.7183 54.0456 21.0391 54.1012 21.3481 54.1012C21.8134 54.1012 22.2521 53.9749 22.6192 53.7265C23.1952 53.3365 23.5396 52.6832 23.577 51.9191C23.7904 51.2532 23.7415 50.5441 23.435 49.9076C23.2387 49.4995 22.9506 49.1507 22.5941 48.8814L24.527 45.9489C27.3027 46.4484 30.197 46.3749 32.9323 45.7373L34.8106 48.2831C34.0713 48.9303 33.7642 49.9487 34.1035 50.8962C34.3327 51.5356 34.8085 52.0422 35.4436 52.3228C36.0698 52.5994 36.7951 52.6162 37.4342 52.369L40.6415 51.1279C41.923 50.632 42.5803 49.2755 42.1378 48.0398C41.9088 47.4004 41.4329 46.8937 40.7978 46.6131C40.2768 46.3829 39.6868 46.3325 39.1352 46.4648L38.6265 43.4646C40.1672 42.5586 41.5732 41.4577 42.8136 40.1859L44.729 40.9997C44.6754 41.9515 45.1317 42.8937 45.9692 43.452C47.2325 44.2941 48.9664 44.0125 49.9167 42.8114L50.4869 42.0905C50.9542 41.4998 51.1557 40.7686 51.0543 40.0313C50.9528 39.2941 50.5608 38.6392 49.9501 38.1872C49.0593 37.5278 47.8963 37.4391 46.9387 37.8955L45.6756 36.4439C46.266 35.4385 46.7639 34.3795 47.1595 33.2876L50.3882 33.1451C50.5483 34.0971 51.2654 34.8997 52.2721 35.1388C52.9515 35.3003 53.6498 35.1888 54.2382 34.8255C54.8184 34.4672 55.2271 33.8872 55.3596 33.234L56.034 29.9091C56.3025 28.5851 55.4074 27.2967 54.0387 27.0369Z" fill="white"/>
<path d="M5.30354 29.1877L8.38895 29.8771C8.45612 30.2921 8.53921 30.7134 8.63689 31.1338C8.72283 31.5041 9.06263 31.7558 9.4393 31.7557C9.49901 31.7557 9.5597 31.7493 9.6204 31.7361C10.0639 31.6397 10.3428 31.2139 10.2431 30.7848C10.1298 30.296 10.0377 29.8065 9.96964 29.3298C9.90477 28.8761 9.55202 28.5022 9.09204 28.3995L4.72217 27.4233C4.47929 27.3691 4.22334 27.4244 4.02743 27.5738C3.83141 27.7232 3.71606 27.9506 3.71386 28.1921L3.70936 28.6869C3.7042 29.2409 3.23413 29.6917 2.66132 29.6917C2.38858 29.6917 2.13252 29.5885 1.94056 29.4011C1.74849 29.2136 1.64412 28.9652 1.64653 28.7014L1.67507 25.6306C1.67759 25.349 1.80129 25.0735 2.01432 24.8748C2.21451 24.6879 2.46749 24.5877 2.73475 24.5953C3.29076 24.6096 3.74075 25.0593 3.73768 25.5979C3.73625 25.8417 3.85051 26.0729 4.04774 26.2249C4.24496 26.377 4.50354 26.4333 4.74873 26.3775L9.08787 25.3933C9.54752 25.289 9.89873 24.9142 9.96206 24.4604C10.2822 22.1637 11.0526 19.9804 12.2516 17.9708C12.4935 17.5651 12.4459 17.0531 12.1326 16.6968L10.0634 14.3461C9.90159 14.1624 9.66375 14.0592 9.41285 14.0663C9.16338 14.0733 8.93059 14.1894 8.78001 14.3818L8.60067 14.6112C8.46666 14.7825 8.2713 14.8903 8.05047 14.9148C7.83041 14.9392 7.61409 14.8766 7.44254 14.7384C7.11833 14.4771 7.07465 13.983 7.34519 13.637L8.72349 11.8742C8.99107 11.532 9.49659 11.4641 9.85033 11.723C10.1816 11.9653 10.2664 12.4204 10.0436 12.7592C9.91432 12.9559 9.88062 13.1974 9.95142 13.4203C10.0222 13.6431 10.1904 13.8248 10.4114 13.9173L13.3048 15.1278C13.7534 15.3156 14.277 15.2067 14.6078 14.8563C15.9251 13.4605 17.452 12.2816 19.1466 11.3525C19.5571 11.1272 19.7859 10.6732 19.7161 10.2224L19.0496 5.93242C19.0125 5.69365 18.8653 5.48408 18.6497 5.36263C18.4338 5.24106 18.1726 5.22089 17.94 5.30752L17.3086 5.54247C17.0809 5.62698 16.8342 5.61817 16.6137 5.51731C16.3933 5.41656 16.2296 5.23703 16.1524 5.01185C16.0066 4.58633 16.2609 4.10146 16.7195 3.93085L19.9437 2.73127C20.1713 2.64655 20.418 2.65557 20.6385 2.75643C20.8589 2.85719 21.0228 3.03671 21.0999 3.26189C21.2457 3.68741 20.9914 4.17228 20.5327 4.343L20.4456 4.37548C20.2098 4.46328 20.0287 4.65088 19.9544 4.88445C19.8802 5.11802 19.9208 5.37165 20.0649 5.57241L22.6031 9.11181C22.8716 9.48616 23.3601 9.66484 23.8188 9.55623C25.2493 9.21734 26.729 9.04546 28.2186 9.04546H28.219C28.7047 9.04546 29.1401 8.74936 29.3024 8.30908L30.1428 6.03435C30.2182 5.83029 30.2044 5.60522 30.1044 5.41136C30.0045 5.21739 29.8272 5.07109 29.6133 5.00643C29.0013 4.82128 28.6121 4.23991 28.6876 3.62414C28.7278 3.29651 28.9058 2.99828 29.1885 2.78435C29.4854 2.55971 29.8652 2.4564 30.2313 2.5011L31.3854 2.64167C32.1335 2.73276 32.6784 3.37284 32.6002 4.06845C32.5397 4.60544 32.1511 5.04094 31.6101 5.17789C31.2139 5.27822 30.9541 5.64514 31.0007 6.0388L31.2928 8.50379C31.3484 8.97422 31.7078 9.35876 32.1873 9.46078C34.0259 9.85148 35.7878 10.5136 37.4235 11.4286C37.8332 11.6579 38.3545 11.6184 38.721 11.3307L42.2034 8.59637C42.3972 8.44423 42.509 8.21523 42.5077 7.97381C42.5063 7.73249 42.3918 7.50465 42.1964 7.35453L41.6667 6.9476C41.4757 6.80098 41.3582 6.59077 41.3361 6.35561C41.314 6.12087 41.3906 5.89325 41.5521 5.71457C41.8569 5.37685 42.4178 5.34267 42.8028 5.63813L45.5083 7.71593C45.6992 7.86254 45.8167 8.07275 45.8389 8.30781C45.8609 8.54254 45.7843 8.77017 45.6229 8.94895C45.318 9.28646 44.7567 9.32064 44.3723 9.0255L44.2993 8.96944C44.1013 8.81731 43.8421 8.76167 43.5966 8.81837C43.3507 8.87506 43.1455 9.03782 43.0398 9.25981L41.1745 13.1765C40.9773 13.5908 41.0667 14.0889 41.3968 14.416C41.5138 14.532 41.6293 14.6519 41.7669 14.7964C42.0747 15.12 42.5955 15.1408 42.93 14.8429C43.2645 14.545 43.286 14.0414 42.9781 13.7178C42.9199 13.6565 42.8652 13.5992 42.8121 13.5443L44.1668 10.6996C45.1145 10.9995 46.1809 10.752 46.8628 9.99682C47.3231 9.48711 47.5417 8.83599 47.4783 8.16342C47.4158 7.5003 47.0708 6.88273 46.5318 6.46889L43.8264 4.3912C42.7454 3.56107 41.2019 3.682 40.3122 4.66712C39.8519 5.17683 39.6332 5.82796 39.6967 6.50052C39.7487 7.05238 39.9962 7.57281 40.3887 7.97041L37.9493 9.8862C36.3557 9.02953 34.6562 8.3903 32.8887 7.98251L32.7079 6.45509C33.5445 6.00748 34.1314 5.1832 34.2375 4.24097C34.4123 2.68689 33.2253 1.26075 31.5917 1.06169L30.4375 0.921121C29.64 0.824084 28.815 1.04597 28.175 1.52999C27.5441 2.00721 27.1457 2.68424 27.0534 3.43643C26.9191 4.52996 27.4406 5.57485 28.3464 6.16578L27.8698 7.45582C26.4827 7.47875 25.1041 7.63896 23.7619 7.93315L21.9198 5.36432C22.6678 4.7269 22.989 3.71247 22.6629 2.76079C22.4427 2.11837 21.9738 1.60558 21.3427 1.31681C20.7204 1.03217 19.9954 1.00595 19.353 1.24493L16.1289 2.44441C14.8405 2.92365 14.1646 4.27154 14.5901 5.51296C14.8102 6.15538 15.279 6.66816 15.9102 6.95694C16.428 7.1938 17.0168 7.25187 17.5707 7.1267L18.0378 10.1331C16.4124 11.0601 14.9338 12.201 13.6345 13.5304L11.7761 12.7529C11.9271 11.9018 11.5909 10.9995 10.8437 10.4527C10.3216 10.0707 9.67725 9.90796 9.0286 9.99534C8.38017 10.0823 7.80561 10.4084 7.41082 10.9135L6.03242 12.6763C5.22584 13.7076 5.38246 15.1508 6.3889 15.9618C6.90969 16.3815 7.56635 16.5717 8.23848 16.4969C8.66224 16.4499 9.06482 16.295 9.40528 16.0547L10.6522 17.4715C9.5 19.482 8.73644 21.6478 8.3793 23.9183L5.19412 24.6408C4.80745 23.7074 3.87191 23.0313 2.77832 23.0034C2.06634 22.9861 1.39168 23.2429 0.871008 23.7288C0.342432 24.2223 0.0353396 24.9101 0.0286446 25.6161L0.000108539 28.6871C-0.00625721 29.379 0.26758 30.0308 0.771022 30.5222C1.27446 31.0137 1.94583 31.2843 2.66121 31.2843C3.9618 31.2844 5.0566 30.3804 5.30354 29.1877Z" fill="white"/>
<path d="M24.1417 24.8411C24.5433 24.6353 24.6964 24.1533 24.4835 23.7647C24.2707 23.3763 23.7726 23.2279 23.3706 23.4341C21.4035 24.4427 19.1613 24.1761 18.04 22.7997C17.4107 22.0277 17.1943 21.0046 17.4305 19.919C17.6781 18.7807 18.3862 17.7178 19.4244 16.9264C20.4623 16.1348 21.6962 15.7175 22.8981 15.7498C24.0445 15.7811 25.0223 16.2236 25.6516 16.9958C26.5964 18.1552 26.5844 19.8859 25.621 21.4048C25.3833 21.7797 25.5046 22.27 25.8922 22.4999C26.2796 22.7299 26.7865 22.6125 27.0242 22.2377C28.3525 20.1436 28.3211 17.6991 26.9444 16.0099C26.0079 14.8606 24.5873 14.2028 22.9447 14.158C21.3572 14.1135 19.7455 14.6536 18.4052 15.6757C17.0647 16.6978 16.1465 18.0884 15.8194 19.591C15.4809 21.1466 15.8104 22.6363 16.7469 23.7856C17.7331 24.9957 19.2772 25.6323 20.9385 25.6322C21.9968 25.6322 23.1026 25.374 24.1417 24.8411Z" fill="white"/>
<path d="M40.1141 17.7002C40.1141 16.0494 38.5259 14.7064 36.5739 14.7064C34.6218 14.7064 33.0335 16.0494 33.0335 17.7002C33.0335 19.351 34.6218 20.694 36.5739 20.694C38.5259 20.694 40.1141 19.351 40.1141 17.7002ZM34.6799 17.7002C34.6799 16.9275 35.5295 16.2989 36.574 16.2989C37.6183 16.2989 38.4679 16.9275 38.4679 17.7002C38.4679 18.4729 37.6183 19.1015 36.574 19.1015C35.5295 19.1015 34.6799 18.4729 34.6799 17.7002Z" fill="white"/>
<path d="M30.5616 31.3853C30.5616 29.3622 28.8601 27.7162 26.7686 27.7162C24.677 27.7162 22.9755 29.3622 22.9755 31.3853C22.9755 33.4084 24.677 35.0543 26.7686 35.0543C28.8601 35.0543 30.5616 33.4084 30.5616 31.3853ZM24.6219 31.3853C24.6219 30.2403 25.5849 29.3088 26.7687 29.3088C27.9523 29.3088 28.9154 30.2403 28.9154 31.3853C28.9154 32.5303 27.9524 33.4618 26.7687 33.4618C25.5849 33.4618 24.6219 32.5303 24.6219 31.3853Z" fill="white"/>
<path d="M41.2927 29.8886C41.2927 28.3154 39.9695 27.0354 38.3431 27.0354C36.7168 27.0354 35.3936 28.3154 35.3936 29.8886C35.3936 31.4619 36.7168 32.7419 38.3431 32.7419C39.9695 32.7418 41.2927 31.4619 41.2927 29.8886ZM37.0398 29.8886C37.0398 29.1935 37.6244 28.6279 38.343 28.6279C39.0616 28.6279 39.6463 29.1935 39.6463 29.8886C39.6463 30.5838 39.0616 31.1494 38.343 31.1494C37.6245 31.1493 37.0398 30.5838 37.0398 29.8886Z" fill="white"/>
<path d="M30.49 42.7226C32.0837 42.7226 33.3805 41.4683 33.3805 39.9265C33.3805 38.3849 32.0838 37.1305 30.49 37.1305C28.8961 37.1305 27.5994 38.3848 27.5994 39.9265C27.5994 41.4683 28.896 42.7226 30.49 42.7226ZM30.49 38.723C31.176 38.723 31.7341 39.2629 31.7341 39.9265C31.7341 40.5902 31.176 41.1301 30.49 41.1301C29.8039 41.1301 29.2457 40.5902 29.2457 39.9265C29.2457 39.2629 29.8039 38.723 30.49 38.723Z" fill="white"/>
<path d="M17.5541 38.0224C19.1955 38.0224 20.5308 36.7307 20.5308 35.143C20.5308 33.5552 19.1955 32.2635 17.5541 32.2635C15.9127 32.2635 14.5773 33.5552 14.5773 35.143C14.5773 36.7307 15.9127 38.0224 17.5541 38.0224ZM17.5541 33.856C18.2878 33.856 18.8845 34.4333 18.8845 35.143C18.8845 35.8526 18.2877 36.4299 17.5541 36.4299C16.8205 36.4299 16.2236 35.8526 16.2236 35.143C16.2236 34.4333 16.8205 33.856 17.5541 33.856Z" fill="white"/>
<path d="M34.3161 25.1782C34.3161 24.7382 33.9476 24.3816 33.4929 24.3816H32.7653C32.3106 24.3816 31.9421 24.7382 31.9421 25.1782C31.9421 25.6181 32.3106 25.9748 32.7653 25.9748H33.4929C33.9476 25.9748 34.3161 25.6181 34.3161 25.1782Z" fill="white"/>
<path d="M23.0511 39.8933H23.7988C24.2535 39.8933 24.6219 39.5366 24.6219 39.0967C24.6219 38.6567 24.2535 38.3 23.7988 38.3H23.0511C22.5964 38.3 22.228 38.6567 22.228 39.0967C22.228 39.5366 22.5965 39.8933 23.0511 39.8933Z" fill="white"/>
<path d="M16.1207 28.2975C16.5754 28.2975 16.9439 27.9408 16.9439 27.5009C16.9439 27.0609 16.5754 26.7043 16.1207 26.7043H15.4005C14.9458 26.7043 14.5773 27.0609 14.5773 27.5009C14.5773 27.9408 14.9458 28.2975 15.4005 28.2975H16.1207Z" fill="white"/>
<path d="M30.7407 14.3665C31.1954 14.3665 31.5639 14.0099 31.5639 13.5699C31.5639 13.13 31.1954 12.7733 30.7407 12.7733H29.7384C29.2837 12.7733 28.9153 13.13 28.9153 13.5699C28.9153 14.0099 29.2837 14.3665 29.7384 14.3665H30.7407Z" fill="white"/>
<path d="M36.2166 35.7079C35.7619 35.7079 35.3935 36.0645 35.3935 36.5045C35.3935 36.9444 35.7619 37.3011 36.2166 37.3011H37.3234C37.7781 37.3011 38.1465 36.9444 38.1465 36.5045C38.1465 36.0645 37.7781 35.7079 37.3234 35.7079H36.2166Z" fill="white"/>
</svg>
