<svg width="55" height="55" viewBox="0 0 55 55" fill="none" xmlns="http://www.w3.org/2000/svg">
<path d="M29.4933 35.8229H33.4446C33.8897 35.8229 34.2503 35.4739 34.2503 35.0436C34.2503 34.6132 33.8897 34.2642 33.4446 34.2642H32.1192V29.654C32.1192 29.2236 31.7586 28.8747 31.3135 28.8747C30.8685 28.8747 30.5078 29.2236 30.5078 29.654V34.2642H29.4933C29.0483 34.2642 28.6877 34.6132 28.6877 35.0436C28.6877 35.4739 29.0483 35.8229 29.4933 35.8229Z" fill="white"/>
<path d="M40.4155 34.4926C40.1007 34.1882 39.5907 34.1882 39.2761 34.4926L37.3932 36.3139C36.2532 37.4168 34.7373 38.0241 33.1252 38.0241H22.7481C21.4115 38.0241 20.1547 38.5277 19.2095 39.442L19.0029 39.6419C18.6883 39.9463 18.6883 40.4398 19.003 40.7441C19.3176 41.0484 19.8276 41.0484 20.1424 40.744L20.349 40.5441C20.9897 39.9242 21.8418 39.5829 22.748 39.5829H33.125C35.1678 39.5829 37.0882 38.8134 38.5326 37.4162L40.4155 35.5949C40.73 35.2904 40.73 34.7969 40.4155 34.4926Z" fill="white"/>
<path d="M39.9232 39.8634C40.238 40.1677 40.748 40.1677 41.0626 39.8634L43.0745 37.9172C44.5151 36.5236 44.764 34.3071 43.6663 32.6468L43.1916 31.9289C42.9519 31.5663 42.4534 31.4604 42.0789 31.6923C41.7041 31.9241 41.5945 32.4062 41.8343 32.7687L42.309 33.4867C43.0021 34.5351 42.845 35.935 41.9352 36.815L39.9233 38.7612C39.6086 39.0655 39.6086 39.559 39.9232 39.8634Z" fill="white"/>
<path d="M54.5669 14.4562L51.7118 11.6944C51.2712 11.2684 50.5974 11.1555 50.0345 11.4135L40.7176 15.6827C39.7952 16.1053 39.5836 17.2869 40.3052 17.9851L42.0308 19.6541L36.7548 22.0716C34.679 21.3025 32.4871 20.9107 30.2012 20.9107L35.7405 12.4941C36.4484 11.4187 35.6479 10.0075 34.3297 10.0075H31.2864C31.2768 10.0075 31.2547 10.0075 31.2364 9.98242C31.2181 9.95737 31.2256 9.93721 31.2289 9.92849L33.7644 3.06065C34.1529 2.00834 33.3447 0.898773 32.1893 0.898773H26.9804C26.2754 0.898773 25.6425 1.33021 25.4054 1.97249L23.1944 7.96113C23.0448 8.36649 23.2632 8.81237 23.6822 8.95712C24.1014 9.10187 24.5622 8.89062 24.7119 8.48526L26.9229 2.49662C26.9316 2.47314 26.9546 2.45745 26.9804 2.45745H32.1893C32.1988 2.45745 32.221 2.45745 32.2393 2.48249C32.2576 2.50753 32.2501 2.52769 32.2468 2.53642L29.7113 9.40425C29.3227 10.4567 30.1309 11.5661 31.2862 11.5661H34.3296C34.3432 11.5661 34.3658 11.5661 34.3832 11.5968C34.4006 11.6274 34.3885 11.6459 34.3811 11.657L28.1744 21.0875C27.9256 21.1875 27.6979 21.3271 27.4996 21.4978C27.0919 21.1469 26.5601 20.9281 25.9768 20.9116L27.7841 16.0166C28.0222 15.3715 27.5269 14.6915 26.8188 14.6915H22.5073C22.4978 14.6915 22.4756 14.6915 22.4573 14.6664C22.439 14.6414 22.4465 14.6211 22.4497 14.6125L23.4255 11.9693C23.5751 11.564 23.3567 11.1181 22.9377 10.9733C22.5186 10.8285 22.0576 11.0398 21.908 11.4452L20.9322 14.0884C20.5437 15.1408 21.3519 16.2503 22.5073 16.2503H25.9868L24.2662 20.9107H22.3475C20.6528 20.9107 18.9655 21.1678 17.3565 21.6646L12.9687 19.654L14.6941 17.985C15.4158 17.2869 15.2043 16.1052 14.2819 15.6827L4.96495 11.4135C4.40206 11.1555 3.72809 11.2683 3.28755 11.6945L0.432365 14.4563C-0.289299 15.1545 -0.0776765 16.336 0.844653 16.7586L5.95442 19.1L4.42053 20.5838C3.59714 21.3803 4.00824 22.7456 5.1451 22.9897L12.1626 24.4967C11.908 24.5941 11.6667 24.7352 11.4511 24.9205C9.47777 26.618 7.94173 28.7799 7.00888 31.1726C6.17152 33.3204 6.47746 35.7299 7.82733 37.618C9.1772 39.5061 11.4 40.6332 13.7732 40.6332H14.6695C14.7931 43.9155 17.5922 46.5488 21.015 46.5488H26.1247L27.3808 48.7715C27.5946 49.1498 28.0844 49.2877 28.4743 49.0816C28.8647 48.8751 29.0081 48.4016 28.7947 48.0239L27.9611 46.5488H30.1605C30.3632 47.8784 31.0766 49.0492 32.101 49.8685L32.5829 51.5741C32.6486 51.8065 32.5995 52.0498 32.4483 52.2414C32.0998 52.6832 31.3973 52.6296 31.1228 52.1439L30.7122 51.4173C30.4988 51.0397 30.0092 50.9007 29.6188 51.1072C29.2284 51.3136 29.0848 51.7871 29.2983 52.1648L29.7089 52.8916C30.5399 54.362 32.6698 54.5293 33.7291 53.1872C34.1877 52.6061 34.3364 51.8685 34.1372 51.1632L34.0553 50.8731C34.9343 51.1222 35.5247 51.0863 36.4257 51.0863C39.5828 51.0863 42.4709 49.0565 43.3416 45.9475C44.3395 45.5493 45.2556 44.9598 46.0415 44.1984C47.0005 43.2692 47.2561 41.9136 46.8081 40.7583C47.8001 40.4459 48.4571 39.594 48.4617 38.5791C48.4742 33.8971 46.6014 29.4731 43.1919 26.1403C42.712 25.6712 42.0648 25.4236 41.3818 25.4491C41.3492 25.2397 41.2876 25.0379 41.2002 24.8484L49.8546 22.9898C50.9913 22.7456 51.4025 21.3804 50.5791 20.5839L49.0452 19.1001L54.155 16.7587C55.0769 16.3359 55.2887 15.1544 54.5669 14.4562ZM7.22802 20.0722C7.94968 19.3742 7.73827 18.1926 6.81584 17.77L1.70597 15.4285L4.36016 12.8611L13.4205 17.0127L11.1915 19.1688C10.7152 19.6296 10.8543 20.4097 11.4637 20.6892L15.3041 22.4489C15.0475 22.5669 14.794 22.6914 14.5439 22.8225C14.311 22.9445 14.1052 23.0992 13.9313 23.28L5.73238 21.5192L7.22802 20.0722ZM36.4253 49.5275H35.5979C33.7317 49.5275 32.1688 48.2483 31.7968 46.5487H40.1816C40.6063 46.5487 41.0261 46.5179 41.4384 46.4576C40.5339 48.3033 38.5913 49.5275 36.4253 49.5275ZM42.0461 27.2364C45.2635 30.3816 46.865 34.4736 46.8499 38.5681C46.8479 39.0281 46.4812 39.2099 46.3688 39.2546C46.254 39.3004 45.8527 39.4235 45.5075 39.0921L45.38 38.9688C45.0654 38.6644 44.5552 38.6645 44.2405 38.9688C43.9259 39.2731 43.9259 39.7666 44.2405 40.0709C44.3074 40.1355 44.6813 40.4971 44.9023 40.7108C45.5813 41.3677 45.5805 42.4382 44.9006 43.0969C44.1951 43.7805 43.359 44.2921 42.4468 44.6099C42.4182 44.6179 42.3903 44.6276 42.363 44.6385C41.1712 45.0363 40.3061 44.9899 39.4149 44.9899C39.376 44.9081 39.3219 44.8315 39.2522 44.764L38.4607 43.9984C36.8144 42.4059 34.6256 41.5288 32.2972 41.5288H24.7311C24.2862 41.5288 23.9254 41.8778 23.9254 42.3082C23.9254 42.7386 24.2862 43.0875 24.7311 43.0875H32.2972C34.1405 43.0875 35.8765 43.7619 37.2043 44.9899C35.5868 44.9899 22.723 44.9899 21.0147 44.9899C18.4019 44.9899 16.2763 42.9337 16.2763 40.4064C16.2763 38.7844 17.1407 37.3271 18.5174 36.5049C18.5648 36.4835 18.6106 36.4573 18.6539 36.4264C19.3501 36.0412 20.1568 35.8227 21.0148 35.8227H25.7335C26.1784 35.8227 26.5391 35.4738 26.5391 35.0434C26.5391 34.613 26.1784 34.2641 25.7335 34.2641H23.2672V29.6538C23.2672 29.2234 22.9064 28.8745 22.4615 28.8745C22.0165 28.8745 21.6558 29.2234 21.6558 29.6538V34.2641H21.0148C20.0538 34.2641 19.1408 34.4687 18.3221 34.8375L15.4654 32.0741C15.1507 31.7698 14.6406 31.7698 14.3261 32.0741C14.0114 32.3785 14.0114 32.872 14.3261 33.1762L16.9294 35.6945C15.8815 36.5438 15.1211 37.7187 14.8141 39.0742H13.7729C9.85622 39.0742 7.12371 35.2942 8.51633 31.7223C9.35745 29.5649 10.7425 27.6156 12.5217 26.0851C12.8341 25.8164 13.3095 25.8298 13.6042 26.1148L15.9839 28.4168C16.2986 28.7211 16.8087 28.7211 17.1232 28.4168C17.4379 28.1124 17.4379 27.6189 17.1232 27.3147C17.0566 27.2502 15.1273 25.384 15.1399 25.3961C14.7669 25.0353 14.8567 24.4309 15.311 24.193C17.4638 23.0653 19.8969 22.4693 22.3474 22.4693H25.9061C26.3404 22.4693 26.6938 22.8111 26.6938 23.2313V26.846C26.6938 27.2764 27.0546 27.6254 27.4995 27.6254C27.9445 27.6254 28.3052 27.2764 28.3052 26.846V23.2313C28.3052 22.8111 28.6585 22.4693 29.0929 22.4693H30.2367C33.4376 22.4693 36.6422 23.3522 39.4464 25.1626C39.8601 25.4295 39.9173 25.9959 39.5663 26.3356L37.2048 28.6198C36.8902 28.9242 36.8902 29.4176 37.2048 29.7219C37.5194 30.0262 38.0295 30.0262 38.3442 29.7219C38.6997 29.378 40.3267 27.8042 40.9227 27.2278C41.2329 26.9279 41.7351 26.9325 42.0461 27.2364ZM48.1836 17.7699C47.2611 18.1925 47.0495 19.3741 47.7712 20.0722L49.2669 21.5191L39.8273 23.5463C39.4524 23.3213 39.0702 23.1103 38.6815 22.9133L43.5357 20.6891C44.1444 20.4099 44.2845 19.6302 43.8078 19.1687L41.5788 17.0126L50.6392 12.8609L53.2934 15.4283L48.1836 17.7699Z" fill="white"/>
</svg>
