<svg width="49" height="59" viewBox="0 0 49 59" fill="none" xmlns="http://www.w3.org/2000/svg">
<path d="M14.7295 53.1305C14.2441 53.1305 13.8506 53.511 13.8506 53.9807V57.6693C13.8506 58.139 14.2441 58.5195 14.7295 58.5195C15.2149 58.5195 15.6084 58.139 15.6084 57.6693V53.9807C15.6084 53.511 15.2149 53.1305 14.7295 53.1305Z" fill="white"/>
<path d="M19.3456 5.23582C19.8309 5.23582 20.2245 4.85527 20.2245 4.38563V1.33065C20.2245 0.86101 19.8309 0.480469 19.3456 0.480469C18.8602 0.480469 18.4666 0.86101 18.4666 1.33065V4.38563C18.4666 4.85527 18.8602 5.23582 19.3456 5.23582Z" fill="white"/>
<path d="M33.2411 32.3719C33.211 32.3424 33.1795 32.3145 33.1489 32.2856C33.9556 31.2008 34.3924 29.9016 34.3924 28.5461C34.3924 27.1873 33.9545 25.8862 33.1456 24.8014C34.2991 23.7149 35.0481 22.2275 35.132 20.586C35.2781 17.7557 33.444 15.1493 30.6715 14.2476C30.0877 14.0581 29.6956 13.5151 29.6956 12.8965V1.33065C29.6956 0.86101 29.3021 0.480469 28.8167 0.480469C28.3313 0.480469 27.9378 0.86101 27.9378 1.33065V12.8965C27.9378 14.2465 28.8116 15.4372 30.1117 15.8596C32.1409 16.5194 33.4834 18.4281 33.3764 20.5016C33.255 22.875 31.2364 24.8098 28.781 24.9062C27.2279 24.9711 25.7314 24.2934 24.7789 23.1029C24.6037 22.8737 23.0652 20.9319 20.8495 20.4277C20.3769 20.32 19.9038 20.6036 19.7926 21.0605C19.6815 21.5176 19.9743 21.9753 20.4468 22.0829C21.5095 22.3247 22.4046 23.0855 22.9142 23.6055C21.976 24.479 20.7013 24.9586 19.3811 24.9062C16.9257 24.8097 14.9073 22.875 14.7859 20.5012C14.6789 18.4281 16.0214 16.5194 18.0502 15.8597C19.3507 15.4372 20.2244 14.2466 20.2244 12.8965V8.35315C20.2244 7.88351 19.8309 7.50297 19.3455 7.50297C18.8601 7.50297 18.4666 7.88351 18.4666 8.35315V12.8965C18.4666 13.5151 18.0745 14.0581 17.4904 14.2477C14.7183 15.1493 12.8842 17.7557 13.0302 20.5857C13.1141 22.2274 13.863 23.7148 15.0165 24.8014C14.2077 25.8862 13.7697 27.1873 13.7697 28.5461C13.7697 29.8975 14.2037 31.1931 15.0056 32.2759C13.8555 33.357 13.1195 34.8409 13.0303 36.4884C12.9835 37.354 13.1145 38.1977 13.4073 38.9837C12.7289 39.7191 12.3368 40.6624 12.3133 41.6524C12.2849 42.7669 12.7076 43.8243 13.5021 44.6286C13.7268 44.8572 13.8506 45.1733 13.8506 45.5185V50.0132C13.8506 50.4828 14.2441 50.8634 14.7295 50.8634C15.2149 50.8634 15.6084 50.4828 15.6084 50.0132V45.5185C15.6084 44.7351 15.3127 44.0028 14.7743 43.4553C14.3036 42.979 14.0538 42.3536 14.0707 41.6928C14.0793 41.3264 14.1745 40.9706 14.343 40.6486C14.4916 40.8384 14.651 41.022 14.8231 41.1975C15.8805 42.275 17.2515 42.9417 18.7473 43.1233C18.6723 43.2316 18.5892 43.3352 18.4963 43.4319C17.943 44.0075 17.6384 44.7414 17.6384 45.4983V57.6693C17.6384 58.139 18.032 58.5195 18.5174 58.5195C19.0027 58.5195 19.3963 58.139 19.3963 57.6693V45.4981C19.3963 45.1722 19.5338 44.8495 19.7839 44.5892C20.1103 44.2494 20.371 43.8623 20.5624 43.4452C20.6689 43.5089 20.7698 43.5826 20.8629 43.6673C21.2103 43.9827 21.4179 44.4107 21.447 44.872L22.2569 57.721C22.2853 58.1721 22.6724 58.5195 23.1334 58.5195C23.1514 58.5195 23.1696 58.519 23.1877 58.5179C23.6722 58.4894 24.0411 58.0862 24.0116 57.6176L23.2017 44.7682C23.1449 43.8719 22.7414 43.0406 22.0665 42.428C21.391 41.8133 20.5088 41.475 19.5822 41.475C18.2518 41.475 17.0144 40.9607 16.0981 40.0268C15.1822 39.0933 14.716 37.8682 14.7858 36.5771C14.9055 34.366 16.7109 32.4923 18.9902 32.218C19.1018 32.2039 19.2194 32.1939 19.3486 32.1877C20.3695 32.1394 21.3627 31.7406 22.1454 31.0641C22.6772 30.6036 23.3646 30.3501 24.0811 30.3501C24.7964 30.3501 25.4842 30.6038 26.0172 31.0644C26.7972 31.7388 27.7899 32.1375 28.8131 32.1874L28.8643 32.1906C31.2838 32.3258 33.266 34.2655 33.3772 36.6067C33.4756 38.6727 32.133 40.5748 30.1124 41.2326C28.8116 41.6561 27.9377 42.8473 27.9377 44.1967V47.9068C27.9377 48.3764 28.3312 48.7569 28.8166 48.7569C29.302 48.7569 29.6955 48.3764 29.6955 47.9068V44.1968C29.6955 43.5782 30.0884 43.0345 30.6731 42.8442C33.4334 41.9455 35.2675 39.3485 35.1333 36.5287C35.0592 34.9697 34.3872 33.4935 33.2411 32.3719ZM28.9306 30.4909C28.9225 30.4903 28.9143 30.4898 28.9063 30.4894C28.2723 30.4595 27.6783 30.2199 27.1884 29.7965C26.3325 29.0571 25.2289 28.6498 24.0811 28.6498C22.9315 28.6498 21.8277 29.0573 20.9736 29.7967C20.4836 30.2202 19.8921 30.4598 19.2617 30.4895C19.0845 30.498 18.9215 30.5118 18.7683 30.5312C17.9222 30.633 17.1303 30.8886 16.4201 31.2654C15.8408 30.474 15.5275 29.5301 15.5275 28.546C15.5275 27.557 15.8428 26.6096 16.4259 25.8173C17.2908 26.2826 18.2715 26.5644 19.3097 26.6052C21.0847 26.6723 22.805 26.0419 24.0809 24.8811C25.293 25.984 26.9056 26.6104 28.586 26.6104C28.6745 26.6104 28.7634 26.6086 28.8521 26.6052C29.8904 26.5644 30.8711 26.2826 31.736 25.8173C32.3191 26.6097 32.6343 27.557 32.6343 28.546C32.6343 29.5324 32.3198 30.4783 31.738 31.2709C30.8905 30.8172 29.9475 30.5481 28.972 30.4936L28.9306 30.4909Z" fill="white"/>
<path d="M28.8167 51.022C28.3313 51.022 27.9377 51.4026 27.9377 51.8722V57.6693C27.9377 58.139 28.3313 58.5195 28.8167 58.5195C29.302 58.5195 29.6956 58.139 29.6956 57.6693V51.8722C29.6956 51.4027 29.302 51.022 28.8167 51.022Z" fill="white"/>
<path d="M47.2833 27.5013H43.4952C43.1964 27.5013 42.9181 27.6482 42.7562 27.8911C42.5944 28.1342 42.5714 28.4401 42.6951 28.7032L43.314 30.0204H40.8908C40.4054 30.0204 40.0119 30.4009 40.0119 30.8706C40.0119 31.3402 40.4054 31.7208 40.8908 31.7208H44.6789C44.9778 31.7208 45.2561 31.5738 45.4179 31.3309C45.5797 31.0878 45.6027 30.7819 45.4791 30.5188L44.8601 29.2016H47.2833C47.7687 29.2016 48.1622 28.8211 48.1622 28.3514C48.1622 27.8818 47.7687 27.5013 47.2833 27.5013Z" fill="white"/>
<path d="M37.7834 25.2884C37.9549 25.4544 38.1799 25.5374 38.4048 25.5374C38.6297 25.5374 38.8547 25.4544 39.0263 25.2884L41.7048 22.6974C41.9161 22.4929 42.0055 22.1988 41.9424 21.9162C41.8791 21.6337 41.6718 21.4016 41.3919 21.3001L39.9914 20.7921L41.7048 19.1347C42.0481 18.8026 42.0481 18.2643 41.7048 17.9323C41.3616 17.6004 40.8051 17.6004 40.4619 17.9323L37.7834 20.5233C37.5721 20.7278 37.4827 21.022 37.5458 21.3046C37.6091 21.5871 37.8164 21.8191 38.0963 21.9207L39.4968 22.4286L37.7834 24.086C37.4401 24.4181 37.4401 24.9563 37.7834 25.2884Z" fill="white"/>
<path d="M39.9915 38.2079L41.392 37.6999C41.6719 37.5983 41.8792 37.3664 41.9425 37.0838C42.0057 36.8013 41.9162 36.5071 41.7049 36.3026L39.0264 33.7115C38.6831 33.3796 38.1266 33.3796 37.7835 33.7115C37.4402 34.0437 37.4402 34.5819 37.7835 34.9139L39.4969 36.5713L38.0964 37.0793C37.8165 37.1809 37.6092 37.4128 37.5459 37.6954C37.4827 37.9779 37.5722 38.2721 37.7835 38.4766L40.462 41.0677C40.6336 41.2336 40.8586 41.3166 41.0835 41.3166C41.3084 41.3166 41.5334 41.2336 41.7049 41.0677C42.0482 40.7355 42.0482 40.1973 41.7049 39.8653L39.9915 38.2079Z" fill="white"/>
<path d="M8.15027 30.8707C8.15027 30.4011 7.75676 30.0205 7.27137 30.0205H4.84816L5.46715 28.7033C5.59078 28.4402 5.56781 28.1342 5.40598 27.8912C5.24426 27.6482 4.96582 27.5014 4.66699 27.5014H0.878906C0.393516 27.5014 0 27.8819 0 28.3516C0 28.8212 0.393516 29.2017 0.878906 29.2017H3.30211L2.68312 30.519C2.55949 30.7821 2.58246 31.088 2.7443 31.331C2.90602 31.5741 3.18445 31.7209 3.48328 31.7209H7.27137C7.75676 31.7209 8.15027 31.3402 8.15027 30.8707Z" fill="white"/>
<path d="M8.66545 22.4285L10.066 21.9206C10.3458 21.819 10.5531 21.5871 10.6164 21.3045C10.6797 21.022 10.5901 20.7277 10.3788 20.5232L7.70029 17.9322C7.35705 17.6003 6.80052 17.6003 6.4574 17.9322C6.11416 18.2643 6.11416 18.8025 6.4574 19.1346L8.1708 20.792L6.77029 21.2999C6.49045 21.4015 6.28314 21.6334 6.21986 21.916C6.15658 22.1985 6.24611 22.4928 6.4574 22.6973L9.13595 25.2883C9.30752 25.4543 9.53252 25.5372 9.7574 25.5372C9.98228 25.5372 10.2073 25.4543 10.3788 25.2883C10.7221 24.9562 10.7221 24.4179 10.3788 24.0859L8.66545 22.4285Z" fill="white"/>
<path d="M10.3788 33.7115C10.0356 33.3796 9.47906 33.3796 9.13594 33.7115L6.45738 36.3026C6.24609 36.5071 6.15668 36.8012 6.21984 37.0838C6.28313 37.3663 6.49043 37.5983 6.77027 37.6999L8.17078 38.2079L6.45738 39.8653C6.11414 40.1974 6.11414 40.7356 6.45738 41.0677C6.62895 41.2336 6.85395 41.3166 7.07883 41.3166C7.30371 41.3166 7.52871 41.2336 7.70027 41.0677L10.3788 38.4766C10.5901 38.2721 10.6795 37.978 10.6164 37.6954C10.5531 37.4129 10.3458 37.1809 10.0659 37.0793L8.66543 36.5713L10.3788 34.9139C10.7221 34.5819 10.7221 34.0437 10.3788 33.7115Z" fill="white"/>
</svg>
