<svg width="49" height="49" viewBox="0 0 49 49" fill="none" xmlns="http://www.w3.org/2000/svg">
<path d="M24.3099 9.49422L17.8552 3.25055C16.0653 1.51914 13.1633 1.51917 11.3734 3.25055L2.34243 11.9864C0.552523 13.7178 0.552523 16.525 2.34243 18.2564L8.79702 24.5M24.3099 9.49422L8.79702 24.5M24.3099 9.49422L30.7644 3.25055C32.5544 1.51914 35.4564 1.51914 37.2462 3.25055L46.2772 11.9864C48.0672 13.7178 48.0672 16.5249 46.2772 18.2564L39.8227 24.5M8.79702 24.5L2.34245 30.7435C0.552546 32.4751 0.552546 35.2822 2.34245 37.0137L11.3735 45.7495C13.1633 47.4808 16.0653 47.4808 17.8552 45.7495L24.3097 39.5058M39.8227 24.5L46.2772 30.7435C48.0672 32.4751 48.0672 35.2822 46.2772 37.0137L37.2462 45.7495C35.4564 47.4808 32.5544 47.4808 30.7644 45.7495L24.3097 39.5058M39.8227 24.5L24.3097 39.5058M27.6514 21.3088L27.6709 21.1886M20.949 27.8114L20.9682 27.6913M33.4571 20.3615L33.4766 20.2414M26.7547 26.8644L26.7739 26.7443M20.0522 33.3671L20.0715 33.2469M28.5481 15.7531L28.5676 15.6329M21.8457 22.2558L21.865 22.1356M15.1432 28.7586L15.1626 28.6385" stroke="white" stroke-width="2" stroke-linecap="round"/>
</svg>
