<svg width="57" height="51" viewBox="0 0 57 51" fill="none" xmlns="http://www.w3.org/2000/svg">
<path d="M37.8153 8.09689C35.1491 6.29539 31.9418 5.24109 28.5 5.24109C21.3928 5.24109 15.2855 9.73704 12.8792 16.025" stroke="white" stroke-width="2" stroke-miterlimit="10" stroke-linecap="round" stroke-linejoin="round"/>
<path d="M20.2483 44.5724C22.6865 45.9672 25.5044 46.7664 28.5 46.7664C37.6937 46.7664 45.2158 39.2443 45.2158 30.0507V21.9567C45.2158 21.4772 45.1941 21.0024 45.154 20.5329" stroke="white" stroke-width="2" stroke-miterlimit="10" stroke-linecap="round" stroke-linejoin="round"/>
<path d="M11.9221 19.8157C11.8314 20.5171 11.7844 21.2317 11.7844 21.9568V27.9372" stroke="white" stroke-width="2" stroke-miterlimit="10" stroke-linecap="round" stroke-linejoin="round"/>
<path d="M17.6652 21.6299C17.934 23.2869 19.3707 24.5521 21.1035 24.5521C22.8363 24.5521 24.273 23.2869 24.5418 21.6299" stroke="white" stroke-width="2" stroke-miterlimit="10" stroke-linecap="round" stroke-linejoin="round"/>
<path d="M32.4583 21.6299C32.7271 23.2869 34.1639 24.5521 35.8967 24.5521C37.6294 24.5521 39.0662 23.2869 39.335 21.6299" stroke="white" stroke-width="2" stroke-miterlimit="10" stroke-linecap="round" stroke-linejoin="round"/>
<path d="M25.0415 34.8565C25.3103 36.5135 26.747 37.7787 28.4798 37.7787C30.2126 37.7787 31.6493 36.5135 31.9181 34.8565" stroke="white" stroke-width="2" stroke-miterlimit="10" stroke-linecap="round" stroke-linejoin="round"/>
<path d="M28.4798 30.0737L26.1084 28.7046L28.4798 25.7825" stroke="white" stroke-width="2" stroke-miterlimit="10" stroke-linecap="round" stroke-linejoin="round"/>
<path d="M40.6314 4.08244C38.5714 5.80127 37.2599 8.38694 37.2599 11.2796C37.2599 16.4546 41.4551 20.6496 46.63 20.6496C51.8048 20.6496 56 16.4546 56 11.2796C56 6.10461 51.8048 1.90955 46.63 1.90955C45.7375 1.90955 44.8752 2.03703 44.0574 2.27009" stroke="white" stroke-width="2" stroke-miterlimit="10" stroke-linecap="round" stroke-linejoin="round"/>
<path d="M51.643 9.49925H48.8788C48.6201 9.49925 48.4103 9.28954 48.4103 9.03069V6.26663C48.4103 6.0079 48.2006 5.79808 47.9417 5.79808H45.3181C45.0594 5.79808 44.8496 6.00779 44.8496 6.26663V9.0308C44.8496 9.28954 44.6398 9.49936 44.381 9.49936H41.6171C41.3583 9.49936 41.1485 9.70906 41.1485 9.96791V12.5915C41.1485 12.8503 41.3582 13.0601 41.6171 13.0601H44.3812C44.64 13.0601 44.8498 13.2698 44.8498 13.5286V16.2928C44.8498 16.5515 45.0595 16.7614 45.3183 16.7614H47.942C48.2007 16.7614 48.4105 16.5517 48.4105 16.2928V13.5286C48.4105 13.2699 48.6202 13.0601 48.8791 13.0601H51.6432C51.902 13.0601 52.1118 12.8504 52.1118 12.5915V9.96791C52.1115 9.70906 51.9017 9.49925 51.643 9.49925Z" stroke="white" stroke-width="2" stroke-miterlimit="10" stroke-linecap="round" stroke-linejoin="round"/>
<path d="M38.4045 33.0062C37.3366 33.0062 36.4679 32.1374 36.4679 31.0696C36.4679 30.0017 37.3366 29.1329 38.4045 29.1329C39.4724 29.1329 40.3411 30.0017 40.3411 31.0696C40.3411 32.1374 39.4723 33.0062 38.4045 33.0062Z" stroke="white" stroke-width="2" stroke-miterlimit="10" stroke-linecap="round" stroke-linejoin="round"/>
<path d="M22.0262 16.9599C20.9583 16.9599 20.0896 16.0911 20.0896 15.0233C20.0896 13.9555 20.9583 13.0866 22.0262 13.0866C23.0941 13.0866 23.9628 13.9554 23.9628 15.0233C23.9628 16.0912 23.094 16.9599 22.0262 16.9599Z" stroke="white" stroke-width="2" stroke-miterlimit="10" stroke-linecap="round" stroke-linejoin="round"/>
<path d="M18.3675 34.8999C16.6617 35.5274 15.4418 37.1686 15.4418 39.0894C15.4418 40.7906 16.3991 42.2722 17.803 43.0248" stroke="white" stroke-width="2" stroke-miterlimit="10" stroke-linecap="round" stroke-linejoin="round"/>
<path d="M10.2312 38.5503C9.11767 38.5503 8.21188 37.6444 8.21188 36.5311C8.21188 35.4177 9.11778 34.5118 10.2312 34.5118C11.3446 34.5118 12.2505 35.4177 12.2505 36.5311C12.2505 37.6444 11.3446 38.5503 10.2312 38.5503Z" stroke="white" stroke-width="2" stroke-miterlimit="10" stroke-linecap="round" stroke-linejoin="round"/>
<path d="M10.4331 46.1201C10.775 45.7099 10.9812 45.1829 10.9812 44.6083C10.9812 43.304 9.92 42.2429 8.61571 42.2429C7.48362 42.2429 6.53589 43.0427 6.30493 44.1066" stroke="white" stroke-width="2" stroke-miterlimit="10" stroke-linecap="round" stroke-linejoin="round"/>
<path d="M11.5779 49.0904C17.42 49.0904 22.1559 44.3545 22.1559 38.5125C22.1559 32.6704 17.42 27.9345 11.5779 27.9345C5.73591 27.9345 1 32.6704 1 38.5125C1 44.3545 5.73591 49.0904 11.5779 49.0904Z" stroke="white" stroke-width="2" stroke-miterlimit="10" stroke-linecap="round" stroke-linejoin="round"/>
<path d="M4.13204 40.4491C4.9929 43.7567 8.00462 46.2057 11.5779 46.2057C15.82 46.2057 19.2711 42.7545 19.2711 38.5124C19.2711 34.2704 15.82 30.8192 11.5779 30.8192C8.00451 30.8192 4.99278 33.2682 4.13193 36.5758" stroke="white" stroke-width="2" stroke-miterlimit="10" stroke-linecap="round" stroke-linejoin="round"/>
</svg>
