<svg width="16" height="15" viewBox="0 0 16 15" fill="none" xmlns="http://www.w3.org/2000/svg">
<path d="M3.00999 14.4637H10.6598C12.0438 14.4637 13.1698 13.3517 13.1698 11.985V8.56229C13.1698 8.23672 12.9022 7.97246 12.5726 7.97246C12.2429 7.97246 11.9753 8.23672 11.9753 8.56229V11.985C11.9753 12.7006 11.3855 13.283 10.6609 13.283H3.00999C2.28536 13.283 1.69559 12.7006 1.69559 11.985V4.43033C1.69559 3.71472 2.28536 3.13229 3.00999 3.13229H8.56836C8.89803 3.13229 9.16562 2.86803 9.16562 2.54246C9.16562 2.2169 8.89803 1.95264 8.56836 1.95264H3.00999C1.62602 1.95158 0.5 3.06358 0.5 4.43033V11.985C0.5 13.3517 1.62602 14.4637 3.00999 14.4637Z" fill="#00B2AE"/>
<path d="M5.70728 6.37336C5.27593 5.87972 4.52025 5.82581 4.02147 6.2518C3.52161 6.67778 3.46702 7.42299 3.89838 7.91663L6.2735 10.6311C6.50042 10.8901 6.83009 11.0402 7.17795 11.0402C7.52582 11.0402 7.85549 10.8911 8.08241 10.6311L15.2089 2.48769C15.6402 1.99405 15.5856 1.24884 15.0858 0.822858C14.5859 0.396872 13.8313 0.450781 13.3999 0.944417L7.17795 8.0551L5.70728 6.37336Z" fill="#F89500"/>
</svg>
