<svg width="46" height="55" viewBox="0 0 46 55" fill="none" xmlns="http://www.w3.org/2000/svg">
<rect x="3" y="0.5" width="43" height="54" rx="5" fill="white"/>
<g clip-path="url(#clip0_1786_342)">
<path d="M6.8214 34.6952C6.51632 34.5377 6.13103 34.46 5.68486 34.46C5.2387 34.46 4.88706 34.4956 4.70874 34.5427V37.6471C4.93433 37.707 5.22079 37.7298 5.56526 37.7298C6.06872 37.7298 6.4934 37.6314 6.82069 37.4425C7.30553 37.1624 7.57695 36.6819 7.57695 36.0247C7.57695 35.3674 7.29765 34.9411 6.82069 34.6952H6.8214Z" fill="#C1272D"/>
<path d="M12.2592 34.46C11.7235 34.46 11.3189 34.5084 11.0453 34.5669V40.8706C11.3067 40.9177 11.6877 40.9298 12.0923 40.9298C14.3067 40.9298 15.5091 39.698 15.5091 37.5416C15.5206 35.6575 14.4499 34.46 12.2592 34.46Z" fill="#C1272D"/>
<path d="M23.245 31.1702H2.6906C1.20458 31.1702 0 32.3692 0 33.8483V41.5528C0 43.032 1.20458 44.231 2.6906 44.231H23.245C24.7311 44.231 25.9356 43.032 25.9356 41.5528V33.8483C25.9356 32.3692 24.7311 31.1702 23.245 31.1702ZM7.99375 37.6828C7.69368 38.0007 7.29048 38.2331 6.82068 38.3785C6.43253 38.499 5.99925 38.5603 5.54163 38.5603C5.23225 38.5603 4.9465 38.5474 4.70874 38.489V41.6883H3.67317V33.797C3.94603 33.7514 4.26543 33.7101 4.63425 33.6815C4.94149 33.658 5.28238 33.643 5.66123 33.643C6.09808 33.643 6.48409 33.6865 6.8214 33.7692C7.27473 33.8804 7.63782 34.0622 7.91139 34.3067C8.35183 34.6859 8.61394 35.2669 8.61394 35.9769C8.61394 36.6869 8.39981 37.2686 7.99518 37.6835L7.99375 37.6828ZM15.4368 40.609C14.687 41.3561 13.4487 41.7588 11.8896 41.7588C11.1513 41.7588 10.5325 41.7232 10.009 41.6633V33.8077C10.64 33.7129 11.3898 33.6416 12.2112 33.6416C13.6994 33.6416 14.7586 33.9852 15.4604 34.6375C16.1744 35.289 16.5912 36.2129 16.5912 37.5045C16.5912 38.7962 16.1866 39.8741 15.4361 40.6083L15.4368 40.609ZM22.2625 34.5662H18.9775V37.2201H22.0125V38.0727H18.9775V41.6868H17.9419V33.7001H22.2632V34.5655L22.2625 34.5662Z" fill="#C1272D"/>
<path d="M43.2044 16.0035L29.7112 4.67704L27.542 2.7887C27.3279 2.60265 27.0536 2.5 26.77 2.5H6.8737C5.6369 2.5 4.63428 3.49799 4.63428 4.72908V28.0977C4.63428 28.3593 4.84698 28.5711 5.10981 28.5711H6.34589C6.60872 28.5711 6.82142 28.3593 6.82142 28.0977V4.67704H26.3188V15.5473C26.3188 16.7784 27.3214 17.7764 28.5582 17.7764H41.8129V50.323H6.82142V47.304C6.82142 47.0424 6.60872 46.8307 6.34589 46.8307H5.10981C4.84698 46.8307 4.63428 47.0424 4.63428 47.304V50.2702C4.63428 51.5013 5.6369 52.4993 6.8737 52.4993H41.7606C42.9974 52.4993 44 51.5013 44 50.2702V17.7079C44 17.0507 43.7085 16.4277 43.2044 16.0035Z" fill="#C1272D"/>
</g>
<defs>
<clipPath id="clip0_1786_342">
<rect y="2.5" width="44" height="50" rx="5" fill="white"/>
</clipPath>
</defs>
</svg>
