<svg width="53" height="54" viewBox="0 0 53 54" fill="none" xmlns="http://www.w3.org/2000/svg">
<path d="M16.2519 2.99826V16.7561H2.49795C2.17022 16.7552 1.84555 16.819 1.54252 16.9439C1.23949 17.0687 0.964068 17.2521 0.732027 17.4836C0.499985 17.715 0.315884 17.99 0.190271 18.2927C0.064657 18.5955 -1.12097e-06 18.92 0 19.2478L0 34.75C0.00143817 35.4117 0.265249 36.0457 0.73355 36.5131C1.20185 36.9804 1.83639 37.2429 2.49795 37.2429H16.2519V51.0083C16.2519 51.336 16.3165 51.6606 16.4422 51.9633C16.5678 52.266 16.7519 52.541 16.9839 52.7725C17.216 53.0039 17.4914 53.1874 17.7944 53.3122C18.0974 53.437 18.4221 53.5008 18.7498 53.5H34.248C34.9094 53.5 35.5437 53.2377 36.012 52.7706C36.4803 52.3035 36.7442 51.6697 36.7459 51.0083V37.2429H50.502C51.1636 37.2429 51.7981 36.9804 52.2664 36.5131C52.7347 36.0457 52.9986 35.4117 53 34.75V19.2478C53 18.92 52.9353 18.5955 52.8097 18.2927C52.6841 17.99 52.5 17.715 52.268 17.4836C52.0359 17.2521 51.7605 17.0687 51.4575 16.9439C51.1545 16.819 50.8298 16.7552 50.502 16.7561H36.7405V2.99826C36.7405 2.33662 36.4781 1.702 36.0108 1.23364C35.5435 0.765282 34.9095 0.501439 34.248 0.5H18.7444C18.4166 0.499856 18.092 0.564417 17.7891 0.689982C17.4863 0.815547 17.2112 0.999648 16.9797 1.23173C16.7481 1.46382 16.5647 1.73932 16.4398 2.04246C16.3149 2.34559 16.251 2.6704 16.2519 2.99826Z" fill="#00B2AE"/>
</svg>
