<svg width="87" height="87" viewBox="0 0 87 87" fill="none" xmlns="http://www.w3.org/2000/svg">
<path d="M43.5 3.05176e-05C19.4748 3.05176e-05 3.05176e-05 19.4765 3.05176e-05 43.5C3.05176e-05 67.5236 19.4748 87 43.5 87C67.5253 87 87 67.5236 87 43.5C87 19.4765 67.5236 3.05176e-05 43.5 3.05176e-05Z" fill="#00B2AE"/>
<path d="M4.89213e-05 43.5C-0.0107602 50.6919 1.7698 57.7733 5.18097 64.1047C9.52566 65.3804 14.0308 66.0264 18.5589 66.0232C44.7099 66.0232 65.9093 44.8237 65.9093 18.6727C65.9117 14.0756 65.2449 9.50266 63.9297 5.09768C57.643 1.74333 50.6257 -0.00765722 43.5 2.51708e-05C19.4748 2.51708e-05 4.89213e-05 19.4765 4.89213e-05 43.5Z" fill="#00ACA8"/>
<path d="M68.3086 36.2987L42.161 63.7564C41.4489 64.504 40.5932 65.1001 39.6451 65.5088C38.697 65.9176 37.6761 66.1307 36.6437 66.1353H36.608C35.5813 66.1355 34.565 65.9295 33.6196 65.5293C32.6741 65.1291 31.8187 64.5429 31.1042 63.8057L17.2301 49.5119C16.5132 48.7923 15.9464 47.9375 15.5626 46.9971C15.1787 46.0567 14.9855 45.0495 14.994 44.0338C15.0026 43.0181 15.2128 42.0142 15.6124 41.0804C16.0121 40.1467 16.5932 39.3015 17.3221 38.5942C18.0509 37.8868 18.9131 37.3312 19.8584 36.9597C20.8037 36.5881 21.8134 36.4081 22.8289 36.4299C23.8444 36.4517 24.8454 36.675 25.7739 37.0869C26.7024 37.4987 27.5398 38.0908 28.2376 38.8289L36.5536 47.3963L57.1974 25.7194C57.892 24.9898 58.7236 24.4042 59.6446 23.996C60.5655 23.5878 61.5579 23.365 62.565 23.3403C63.572 23.3156 64.5741 23.4895 65.514 23.8521C66.4538 24.2147 67.3131 24.7588 68.0427 25.4535C68.7722 26.1481 69.3578 26.9797 69.7661 27.9006C70.1743 28.8216 70.3971 29.8139 70.4218 30.821C70.4465 31.8281 70.2725 32.8302 69.91 33.77C69.5474 34.7099 69.0032 35.5692 68.3086 36.2987Z" fill="white"/>
</svg>
