<svg width="46" height="46" viewBox="0 0 46 46" fill="none" xmlns="http://www.w3.org/2000/svg">
<path fill-rule="evenodd" clip-rule="evenodd" d="M31.8819 21.7848L24.4414 34.6725C24.1443 35.1881 23.9699 35.765 23.9354 36.3591C23.8855 37.1718 23.7782 38.9524 23.6785 40.6371C23.5904 42.0861 24.3302 43.4604 25.5875 44.1868C26.8449 44.9132 28.405 44.8653 29.6163 44.0661C31.0251 43.1346 32.5143 42.1532 33.1928 41.7047C33.6893 41.377 34.1033 40.9381 34.4003 40.4225L41.8408 27.5348C42.8988 25.7006 42.2721 23.3565 40.4378 22.2985L37.1182 20.3818C35.2839 19.3238 32.9399 19.9506 31.8819 21.7848ZM38.3334 15.2969V9.58331C38.3334 6.4074 35.7593 3.83331 32.5834 3.83331H13.4167C11.891 3.83331 10.4286 4.43898 9.35143 5.51806C8.27235 6.59523 7.66669 8.05765 7.66669 9.58331V36.4166C7.66669 39.5926 10.2408 42.1666 13.4167 42.1666H19.0517C20.1097 42.1666 20.9684 41.308 20.9684 40.25C20.9684 39.192 20.1097 38.3333 19.0517 38.3333H13.4167C12.3587 38.3333 11.5 37.4746 11.5 36.4166V9.58331C11.5 9.0754 11.7013 8.58664 12.0616 8.22823C12.42 7.86789 12.9088 7.66665 13.4167 7.66665H32.5834C33.6414 7.66665 34.5 8.52531 34.5 9.58331V15.2969C34.5 16.3549 35.3587 17.2136 36.4167 17.2136C37.4747 17.2136 38.3334 16.3549 38.3334 15.2969ZM35.2015 23.7015L38.5212 25.6181L31.0807 38.5058L27.5042 40.8672L27.761 36.5891L35.2015 23.7015ZM17.25 32.5833H21.4187C22.4767 32.5833 23.3354 31.7246 23.3354 30.6666C23.3354 29.6086 22.4767 28.75 21.4187 28.75H17.25C16.192 28.75 15.3334 29.6086 15.3334 30.6666C15.3334 31.7246 16.192 32.5833 17.25 32.5833ZM17.25 24.9166H25.5875C26.6455 24.9166 27.5042 24.058 27.5042 23C27.5042 21.942 26.6455 21.0833 25.5875 21.0833H17.25C16.192 21.0833 15.3334 21.942 15.3334 23C15.3334 24.058 16.192 24.9166 17.25 24.9166ZM17.25 17.25H28.75C29.808 17.25 30.6667 16.3913 30.6667 15.3333C30.6667 14.2753 29.808 13.4166 28.75 13.4166H17.25C16.192 13.4166 15.3334 14.2753 15.3334 15.3333C15.3334 16.3913 16.192 17.25 17.25 17.25Z" fill="#F3FFFD"/>
</svg>
